<?xml version="1.0" encoding="UTF-8" standalone="no"?>
<svg
   xmlns:dc="http://purl.org/dc/elements/1.1/"
   xmlns:cc="http://creativecommons.org/ns#"
   xmlns:rdf="http://www.w3.org/1999/02/22-rdf-syntax-ns#"
   xmlns:svg="http://www.w3.org/2000/svg"
   xmlns="http://www.w3.org/2000/svg"
   viewBox="0 0 747.82666 656.66669"
   height="656.66669"
   width="747.82666"
   xml:space="preserve"
   id="svg2"
   version="1.1"><metadata
     id="metadata8"><rdf:RDF><cc:Work
         rdf:about=""><dc:format>image/svg+xml</dc:format><dc:type
           rdf:resource="http://purl.org/dc/dcmitype/StillImage" /></cc:Work></rdf:RDF></metadata><defs
     id="defs6" /><g
     transform="matrix(1.3333333,0,0,-1.3333333,0,656.66667)"
     id="g10"><g
       transform="scale(0.1)"
       id="g12"><path
         id="path14"
         style="fill:#f9dac2;fill-opacity:1;fill-rule:nonzero;stroke:none"
         d="m 2872.51,3315.63 5.04,-2.51 v 7.56 z" /><path
         id="path16"
         style="fill:#000000;fill-opacity:1;fill-rule:nonzero;stroke:none"
         d="m 3056.37,4081.3 -27.7,-26.44 c -158.68,192.67 -346.31,311.05 -560.4,353.87 -204.01,40.29 -413.06,10.06 -627.14,-90.68 -152.38,152.38 -294.68,272.01 -424.39,358.91 -164.98,109.56 -336.25,183.86 -513.806,224.16 18.89,-23.93 50.379,-61.71 96.964,-110.83 L 1117.02,4663.1 c 93.19,-107.04 142.3,-193.93 148.59,-259.41 -241.79,55.41 -425.645,84.37 -554.09,88.15 -173.79,5.04 -338.758,-26.45 -497.434,-95.71 172.527,-13.85 316.09,-45.33 430.684,-94.45 124.679,-54.15 220.382,-130.97 287.128,-231.72 -172.527,42.83 -319.867,69.27 -442.023,76.82 -159.934,10.08 -307.273,-5.03 -444.5391,-47.85 C 429.43,3883.59 755.59,3665.72 1021.31,3442.82 l -323.642,56.67 c -125.938,21.42 -235.496,31.49 -326.168,35.27 h -1.262 c 98.231,-62.97 255.641,-156.17 470.989,-282.09 206.533,-119.64 363.943,-214.09 469.723,-283.35 l -318.606,88.15 c 112.086,-86.89 241.796,-175.05 390.386,-264.46 -8.81,50.37 -7.55,86.9 3.79,110.82 11.33,26.46 37.77,36.53 76.82,31.49 33.99,27.7 64.21,22.66 89.4,-13.86 l 28.97,-5.03 c -143.57,224.16 -166.24,419.35 -66.75,583.06 39.04,-134.74 75.56,-239.27 112.09,-313.57 42.81,-91.92 88.15,-153.64 138.52,-185.12 -17.64,39.04 -25.18,85.64 -26.45,143.57 -1.26,55.41 5.04,114.59 18.89,176.31 31.49,139.77 88.16,250.59 168.75,334.96 -6.3,-156.15 3.78,-277.05 27.71,-362.68 27.7,-94.44 78.07,-164.96 152.37,-211.56 1.26,86.89 7.56,162.45 18.89,225.42 15.11,79.33 40.3,151.11 75.56,215.34 37.78,66.75 84.38,130.97 137.27,190.16 28.96,-36.52 31.48,-114.59 8.82,-234.23 -15.11,-84.38 -49.12,-209.05 -99.49,-376.55 46.6,13.86 105.78,66.75 175.04,161.21 54.16,73.03 123.42,182.59 209.05,329.93 65.48,-94.45 74.3,-235.49 26.45,-421.88 20.15,3.79 50.37,21.42 91.93,55.42 l 134.75,113.34 c 7.55,-74.3 0,-153.64 -20.15,-236.75 l -40.31,-124.67 105.8,64.22 c 3.77,-47.86 0,-85.64 -10.09,-114.59 l -22.66,-51.64 22.66,3.78 c 11.34,34 30.23,68 56.67,103.26 30.23,37.78 60.45,62.97 90.68,78.08 35.25,16.37 65.48,13.85 90.67,-10.08 30.23,-26.44 50.37,-80.59 60.44,-161.19 -5.03,-81.85 -22.67,-142.3 -49.11,-183.86 32.74,23.92 90.67,59.19 172.53,105.78 75.56,41.56 128.45,75.56 161.19,103.27 l -188.89,-6.29 c 37.78,26.44 90.66,62.96 159.92,107.03 l 180.09,117.12 c 149.86,99.49 263.2,187.65 340.02,265.72 l 5.04,8.81 c -166.24,-44.07 -311.06,-71.78 -431.96,-79.34 l 387.88,269.51 c 196.45,142.29 322.38,255.63 376.54,338.75 -119.64,-21.41 -255.64,-55.41 -408.03,-99.49 L 3522.32,3709.8 c 2.52,28.97 23.93,66.74 61.71,114.6 31.48,36.52 78.08,84.37 142.3,143.56 l 178.83,161.19 c 73.04,65.49 130.96,122.16 175.04,167.49 -156.16,-7.55 -322.39,-32.74 -499.95,-73.03 -139.78,-32.75 -302.24,-80.6 -487.36,-141.05 l -36.52,-1.26" /><path
         id="path18"
         style="fill:#f8cdaa;fill-opacity:1;fill-rule:nonzero;stroke:none"
         d="m 1565.33,3131.77 c 6.3,32.74 18.89,55.41 37.78,70.52 -12.59,27.71 -25.18,59.19 -37.78,94.45 -20.14,-20.14 -37.78,-54.15 -50.37,-103.26 12.59,-32.74 28.97,-52.89 50.37,-61.71" /><path
         id="path20"
         style="fill:#f8cdaa;fill-opacity:1;fill-rule:nonzero;stroke:none"
         d="m 1882.69,3112.89 c -55.41,70.51 -96.98,118.37 -123.42,141.04 l -5.04,-68.01 c 32.74,-18.89 62.97,-41.55 86.9,-69.26 39.04,-49.11 71.78,-86.89 99.48,-113.34 41.56,-42.82 83.12,-71.78 122.16,-89.41 -84.38,75.56 -144.82,141.04 -180.08,198.98" /><path
         id="path22"
         style="fill:#f8cdaa;fill-opacity:1;fill-rule:nonzero;stroke:none"
         d="m 1470.88,2510.92 c -16.36,6.3 -31.48,-1.26 -45.33,-25.18 -13.85,-21.4 -18.89,-41.56 -15.11,-59.19 v -1.26 c 6.3,2.52 12.59,7.56 21.41,15.11 8.81,10.08 17.63,15.12 23.93,17.64 7.56,2.51 12.59,1.25 16.36,-5.05 2.53,-5.03 2.53,-10.06 0,-16.36 -8.8,-13.86 -25.18,-26.45 -46.59,-35.26 12.59,-12.6 30.23,-16.38 50.38,-11.34 22.66,3.78 37.78,17.64 45.32,40.3 -28.95,17.63 -46.58,44.08 -50.37,80.59" /><path
         id="path24"
         style="fill:#f8cdaa;fill-opacity:1;fill-rule:nonzero;stroke:none"
         d="m 1489.78,2561.3 c -8.82,-13.86 -12.6,-28.96 -10.08,-46.59 12.6,1.25 26.45,5.03 37.78,11.33 l -25.18,36.52 -2.52,-1.26" /><path
         id="path26"
         style="fill:#f8cdaa;fill-opacity:1;fill-rule:nonzero;stroke:none"
         d="m 1401.62,2897.54 c -8.81,-21.41 -8.81,-55.41 0,-105.78 10.08,-62.97 44.08,-133.49 99.49,-209.05 32.74,-47.86 64.22,-79.34 91.93,-98.23 40.3,-25.19 83.12,-32.74 130.97,-18.89 l -47.85,80.6 c -22.67,1.25 -44.08,11.33 -69.27,32.74 -22.67,18.89 -41.56,41.56 -56.66,69.26 -16.38,27.71 -23.93,51.63 -23.93,73.05 0,23.92 11.33,39.03 31.48,45.33 l -20.15,40.3 c -75.56,40.3 -105.78,23.92 -93.18,-49.12 -26.45,80.6 1.25,103.27 83.1,66.74 l -32.73,68.01 -11.34,17.63 -20.14,7.56 c -31.49,8.81 -51.64,1.26 -61.72,-20.15" /><path
         id="path28"
         style="fill:#f8cdaa;fill-opacity:1;fill-rule:nonzero;stroke:none"
         d="m 1608.16,2670.86 c -15.12,2.52 -31.49,-1.26 -51.64,-11.33 11.34,-18.89 21.41,-36.53 34,-50.37 11.34,6.29 25.19,10.07 44.07,11.33 l -26.43,50.37" /><path
         id="path30"
         style="fill:#f8cdaa;fill-opacity:1;fill-rule:nonzero;stroke:none"
         d="m 1550.23,2673.38 c 15.1,8.81 32.74,12.59 50.37,11.34 l -36.52,69.26 c -13.85,-1.27 -22.67,-11.34 -23.93,-26.45 -2.52,-15.11 0,-32.74 10.08,-54.15" /><path
         id="path32"
         style="fill:#f8cdaa;fill-opacity:1;fill-rule:nonzero;stroke:none"
         d="m 1557.78,2490.78 -30.23,30.22 c -16.36,-8.81 -34,-12.59 -50.37,-15.11 3.78,-13.85 11.34,-30.23 21.41,-49.11 16.37,2.51 35.26,13.85 59.19,34" /><path
         id="path34"
         style="fill:#f8cdaa;fill-opacity:1;fill-rule:nonzero;stroke:none"
         d="m 1667.34,2560.04 -23.93,44.07 c -13.85,1.27 -27.7,-1.25 -39.03,-8.81 21.41,-21.41 42.81,-32.74 62.96,-35.26" /><path
         id="path36"
         style="fill:#f8cdaa;fill-opacity:1;fill-rule:nonzero;stroke:none"
         d="m 2671.02,3367.26 c -41.56,-6.29 -80.59,-30.22 -118.37,-69.26 -60.45,-68 -120.9,-161.19 -178.83,-280.83 10.07,2.52 25.18,20.15 47.85,49.12 l 70.53,94.45 c 68,88.15 127.19,134.74 173.79,139.78 l 5.03,66.74" /><path
         id="path38"
         style="fill:#f8cdaa;fill-opacity:1;fill-rule:nonzero;stroke:none"
         d="m 2873.77,3247.63 2.52,42.82 -17.63,13.85 c -32.75,-31.49 -61.71,-56.67 -84.38,-75.56 l 15.11,-31.48 c 1.27,-1.26 6.31,1.26 15.12,5.03 30.22,13.85 52.89,28.97 69.26,45.34" /><path
         id="path40"
         style="fill:#f8cdaa;fill-opacity:1;fill-rule:nonzero;stroke:none"
         d="m 2674.8,2367.36 c -46.6,-3.77 -91.93,-16.36 -137.27,-39.04 -42.81,-21.4 -80.59,-50.37 -112.08,-85.63 -47.85,-2.52 -88.15,-8.82 -120.9,-20.15 -40.29,-13.85 -83.11,-39.04 -129.7,-75.56 l -28.97,-23.92 13.86,16.37 c -90.68,-16.37 -158.68,-52.89 -205.27,-109.56 -45.34,-55.42 -68.01,-128.45 -65.49,-220.38 0,-17.64 1.26,-30.23 5.04,-39.04 2.52,-6.3 8.82,-17.63 21.41,-32.74 75.56,-94.46 171.27,-127.2 284.61,-96.98 l 26.44,16.38 c 66.74,-40.3 148.6,-42.82 245.57,-7.56 93.19,32.75 192.68,98.22 298.46,196.46 l -26.45,-31.49 c 32.74,3.78 66.74,20.15 102.01,46.59 35.25,27.71 65.48,61.72 88.15,102.01 26.44,44.08 39.04,88.15 40.3,133.49 2.51,51.63 -11.34,99.48 -42.82,144.82 -31.49,46.6 -70.52,80.6 -117.12,102.01 -42.81,18.89 -89.41,27.7 -139.78,23.92" /><path
         id="path42"
         style="fill:#f8cdaa;fill-opacity:1;fill-rule:nonzero;stroke:none"
         d="m 2397.75,2296.84 -37.79,-12.59 -41.55,-1.26 c -70.52,2.52 -143.56,10.08 -217.86,22.67 16.37,-30.23 28.96,-52.89 39.04,-66.75 16.37,-22.66 36.52,-44.07 59.18,-61.7 54.16,45.33 120.9,71.78 197.71,78.08 2.52,12.59 2.52,26.44 1.27,41.55" /><path
         id="path44"
         style="fill:#f8cdaa;fill-opacity:1;fill-rule:nonzero;stroke:none"
         d="m 1504.89,2454.25 c 10.07,-13.85 22.66,-20.14 35.26,-21.4 2.52,13.85 25.18,22.67 66.74,26.44 -17.62,6.3 -32.74,15.12 -45.33,25.19 -15.11,-15.11 -34.01,-25.19 -56.67,-30.23" /><path
         id="path46"
         style="fill:#f8cdaa;fill-opacity:1;fill-rule:nonzero;stroke:none"
         d="m 1745.42,2128.09 c -47.86,-28.96 -104.53,-42.81 -168.75,-40.3 -20.15,-15.1 -41.56,-36.52 -64.22,-64.22 -25.19,-30.23 -45.34,-59.19 -59.19,-88.15 -39.05,-74.31 -25.19,-117.12 40.29,-127.19 l 10.08,36.52 c -15.11,10.07 -23.93,25.18 -27.7,44.07 11.33,-18.89 22.66,-28.96 32.73,-31.48 l 11.34,17.62 c -6.29,-17.62 -11.34,-44.07 -13.85,-79.32 -3.78,-41.57 -3.78,-69.27 3.78,-88.16 7.55,-20.15 25.18,-31.48 52.89,-32.74 27.7,-2.52 49.11,6.3 62.97,25.18 -11.34,5.04 -22.68,15.12 -35.27,27.71 49.12,-30.23 109.56,-32.74 183.86,-6.3 -30.22,16.38 -52.89,46.6 -64.22,91.93 -13.85,51.64 -10.08,110.82 11.33,176.31 18.9,59.19 49.12,100.74 90.67,122.15 -27.7,11.34 -49.11,16.37 -66.74,16.37" /><path
         id="path48"
         style="fill:#f8cdaa;fill-opacity:1;fill-rule:nonzero;stroke:none"
         d="m 1462.07,2439.14 c 3.78,2.52 5.04,6.31 2.52,10.08 -2.52,3.77 -5.04,5.03 -7.55,2.52 l -42.83,-34.01 6.3,-10.06 c 11.34,5.03 25.19,15.1 41.56,31.47" /><path
         id="path50"
         style="fill:#f8cdaa;fill-opacity:1;fill-rule:nonzero;stroke:none"
         d="m 1419.26,2390.03 c -11.34,11.34 -17.64,25.18 -20.15,44.08 -12.59,-12.59 -21.41,-32.74 -26.45,-59.19 16.37,8.81 31.48,13.85 46.6,15.11" /><path
         id="path52"
         style="fill:#f8cdaa;fill-opacity:1;fill-rule:nonzero;stroke:none"
         d="m 1375.18,2335.88 28.96,1.26 c -7.55,-8.82 -15.11,-12.59 -22.66,-13.85 l 1.25,-6.3 c 6.3,-10.07 15.12,-16.37 25.19,-18.89 10.08,-2.52 20.15,0 30.22,5.04 22.67,13.85 32.74,39.04 31.49,74.3 -8.82,0 -20.15,2.52 -35.27,8.81 -21.4,-2.52 -42.81,-10.07 -65.47,-21.41 0,-8.81 1.25,-18.89 6.29,-28.96" /><path
         id="path54"
         style="fill:#f8cdaa;fill-opacity:1;fill-rule:nonzero;stroke:none"
         d="m 1435.63,2255.29 c 13.85,1.26 16.36,15.1 5.03,41.55 -25.19,-11.33 -47.85,-6.3 -71.77,16.37 -11.35,-28.96 -10.09,-47.85 2.51,-56.66 l 64.23,-1.26" /><path
         id="path56"
         style="fill:#f8cdaa;fill-opacity:1;fill-rule:nonzero;stroke:none"
         d="m 1735.34,660.98 -50.37,-13.851 c 18.89,-27.699 37.78,-47.852 55.42,-59.184 7.54,-6.293 13.84,-8.82 18.88,-10.078 l 21.41,-1.262 c 201.49,-3.773 351.35,15.114 449.58,55.418 -25.19,25.184 -44.08,47.852 -57.93,66.743 l -76.82,-2.524 c -20.15,6.297 -32.74,23.934 -36.52,54.153 L 1925.5,718.918 c -51.63,-12.598 -93.19,-18.895 -122.15,-20.152 -21.41,-17.633 -44.08,-28.965 -68.01,-37.786" /><path
         id="path58"
         style="fill:#f8cdaa;fill-opacity:1;fill-rule:nonzero;stroke:none"
         d="m 3945.45,161.031 -11.33,-16.367 c 41.56,-16.371 91.93,-23.926 154.9,-22.664 l 25.18,2.512 20.15,13.851 c 25.19,16.375 57.93,32.746 98.23,47.852 13.85,5.047 27.7,7.558 41.56,10.078 l 190.15,6.301 c -46.59,27.699 -84.37,54.144 -112.08,76.82 -139.78,-80.605 -275.78,-120.898 -406.76,-118.383" /><path
         id="path60"
         style="fill:#f8cdaa;fill-opacity:1;fill-rule:nonzero;stroke:none"
         d="m 3170.97,3014.66 c -17.63,31.48 -40.29,45.33 -68.01,45.33 -57.92,-2.52 -120.89,-74.29 -188.89,-217.86 v 25.19 c -11.34,-6.3 -22.67,-5.04 -34,2.51 30.22,57.94 42.82,109.56 39.03,153.64 -45.33,-34 -83.11,-56.67 -113.33,-66.75 32.74,91.94 54.15,180.09 64.22,263.21 -16.36,-15.12 -40.29,-28.97 -71.78,-40.3 l -22.67,-5.04 -2.51,6.29 -3.79,16.38 -8.81,18.88 c -44.07,-33.99 -84.38,-55.4 -118.38,-65.48 8.82,41.56 15.12,81.86 21.41,122.15 -16.37,-2.51 -32.74,-8.81 -50.37,-17.62 -20.15,-8.82 -41.55,-27.71 -64.23,-55.41 l -52.88,-68.01 -91.94,-104.52 c -27.7,-30.23 -47.85,-47.86 -59.18,-55.41 -17.64,-32.75 -39.04,-57.93 -62.97,-74.3 l -46.6,-36.52 c -22.66,-5.04 -35.25,8.81 -41.55,44.08 -5.04,31.48 -1.26,69.26 10.07,109.56 -6.29,-64.23 3.78,-113.35 30.22,-144.83 3.79,1.26 8.82,5.04 13.86,12.59 v 69.27 c 6.29,-23.92 15.11,-41.56 26.45,-50.38 28.96,18.9 51.63,44.08 65.48,75.57 41.56,86.89 71.78,147.34 91.93,181.33 36.52,64.23 75.56,118.39 117.11,161.2 37.78,39.04 78.09,60.45 122.16,66.74 0,78.08 -12.59,141.05 -37.78,188.9 -161.19,-312.3 -297.2,-474.76 -405.5,-488.61 107.04,367.72 142.3,562.91 108.3,589.36 -16.37,-12.6 -35.26,-34 -55.41,-64.23 l -56.67,-88.15 c -61.7,-93.19 -96.97,-248.08 -107.04,-464.69 -75.56,49.11 -128.45,113.34 -162.45,192.68 -39.04,96.97 -51.63,222.9 -39.04,380.31 -84.38,-119.63 -136.01,-239.27 -153.64,-356.38 22.67,-17.63 46.59,-42.82 71.78,-71.79 l 64.23,-80.59 c 28.96,-47.86 64.22,-91.93 104.52,-132.23 21.41,-22.67 56.67,-54.15 104.52,-93.19 -3.77,13.85 -3.77,28.96 0,46.59 7.56,-36.52 16.38,-66.74 26.45,-91.93 -10.07,8.82 -17.63,20.16 -23.93,34.01 -46.59,12.59 -88.15,31.48 -124.67,57.92 -46.59,31.49 -93.19,80.6 -143.56,144.82 -25.19,32.75 -54.16,59.19 -86.9,78.08 0,-61.7 8.82,-123.4 26.45,-185.12 -61.7,27.71 -118.38,95.71 -168.75,202.75 -17.63,-15.11 -27.71,-40.29 -31.48,-75.56 -40.3,6.3 -68,34.01 -84.38,83.12 15.12,55.41 36.53,95.71 62.97,122.16 -16.37,49.11 -32.74,102 -47.85,158.67 -34.01,-76.82 -47.85,-153.64 -40.31,-231.72 8.82,-95.71 50.37,-206.53 125.94,-329.94 l -50.37,-2.51 c -21.41,35.25 -44.08,42.81 -65.49,22.66 6.3,-1.25 10.08,-3.77 12.59,-7.56 l 8.82,-18.88 c 113.34,-220.38 198.97,-384.1 258.16,-489.89 l -26.44,35.27 c -39.04,-8.82 -75.56,-8.82 -110.83,2.51 -39.04,-3.77 -64.22,-10.06 -70.52,-20.14 -6.29,-8.81 -1.26,-20.15 16.38,-32.74 33.99,-25.19 80.59,-44.08 139.78,-56.67 l -45.33,2.51 c -55.41,-35.25 -70.53,-96.96 -47.86,-183.86 -15.11,22.67 -20.15,52.89 -13.85,90.68 5.03,39.03 18.89,70.52 42.81,95.7 -57.93,25.19 -91.93,46.6 -104.52,68.01 l -16.37,8.81 c -11.33,-21.41 -27.71,-35.26 -47.85,-44.08 0,-37.77 -8.82,-64.22 -23.94,-76.81 7.56,-16.37 10.08,-32.74 5.05,-47.85 0,-40.3 8.81,-73.05 28.96,-98.23 13.86,-17.64 40.3,-40.3 79.33,-64.23 88.16,-6.3 157.42,13.86 207.79,61.71 55.42,49.11 81.86,123.41 80.6,221.64 l -1.26,3.77 v 6.31 c 1.26,-13.86 69.26,-32.75 207.79,-56.68 132.23,-23.92 216.6,-34 251.86,-31.48 l 47.85,1.26 c 11.34,2.52 26.45,7.56 46.6,15.11 102.01,42.82 245.57,115.86 428.17,219.12 l 26.45,16.38 10.07,27.7 34,129.71 -10.07,-91.93 32.74,-42.82 c 11.33,-16.37 22.67,-25.18 32.74,-23.93 42.82,2.52 79.34,18.89 110.82,47.86 18.89,17.63 41.56,45.34 65.49,81.85 l 12.59,10.08 c 34,62.96 52.89,125.93 55.41,191.41 -5.03,57.93 -16.36,102.01 -34,133.5" /><path
         id="path62"
         style="fill:#f6110c;fill-opacity:1;fill-rule:nonzero;stroke:none"
         d="m 3135.71,2651.97 c -26.45,-36.52 -51.63,-65.49 -76.82,-84.38 230.46,-193.93 399.21,-459.64 504.99,-798.41 12.59,-8.81 17.63,-21.41 17.63,-40.29 6.29,56.67 54.15,100.74 142.3,137.27 -79.34,119.63 -175.04,251.86 -287.13,399.2 l -300.97,386.61" /><path
         id="path64"
         style="fill:#f6110c;fill-opacity:1;fill-rule:nonzero;stroke:none"
         d="m 1993.5,2242.69 c -1.25,28.97 -2.51,57.93 -1.25,84.37 -27.71,6.3 -55.42,15.12 -84.38,25.19 -26.44,8.82 -42.82,15.11 -50.37,20.15 6.29,-44.08 -1.27,-86.89 -18.89,-129.71 -18.89,-44.08 -46.6,-80.6 -84.38,-107.04 27.71,0 52.9,-5.03 74.31,-15.11 l 23.92,6.29 c 23.93,22.67 47.85,57.93 74.3,104.53 -12.59,-41.56 -31.48,-75.56 -54.15,-103.27 l 37.78,-2.52 64.22,5.05 c 5.04,13.84 13.86,25.18 26.45,31.47 l -6.3,56.68 c -11.33,-16.38 -31.48,-35.27 -59.19,-52.89 25.2,26.44 45.34,51.62 57.93,76.81" /><path
         id="path66"
         style="fill:#f6110c;fill-opacity:1;fill-rule:nonzero;stroke:none"
         d="m 1911.64,2114.24 c -5.03,1.26 -21.4,-15.11 -47.85,-47.85 l -44.07,-55.41 c 25.19,44.07 50.37,79.33 75.56,105.78 -78.08,5.04 -130.97,-40.3 -162.45,-136.01 -16.38,-51.63 -18.89,-100.75 -10.08,-149.86 8.82,-54.15 34,-89.41 73.04,-103.26 -5.03,20.14 -5.03,45.33 0,76.82 -5.03,-50.38 6.3,-85.64 34,-107.05 26.44,-20.14 61.71,-20.14 104.53,0 -15.12,12.6 -28.97,30.23 -44.08,49.12 -7.55,10.07 -11.33,17.63 -13.85,21.41 -1.26,5.03 -1.26,12.59 -2.52,25.18 -1.26,158.68 51.63,264.46 159.93,318.61 -27.71,6.3 -69.26,7.55 -122.16,2.52" /><path
         id="path68"
         style="fill:#f6110c;fill-opacity:1;fill-rule:nonzero;stroke:none"
         d="m 3837.15,1552.58 c 36.52,26.45 69.26,37.78 99.49,30.23 L 3845.97,1710 c -15.11,6.29 -56.67,5.04 -125.93,-2.52 l -115.86,-18.89 c 31.48,-50.37 89.41,-125.93 176.3,-226.68 0,31.48 20.15,61.71 56.67,90.67" /><path
         id="path70"
         style="fill:#f6110c;fill-opacity:1;fill-rule:nonzero;stroke:none"
         d="m 3956.79,1558.88 c -13.86,12.59 -35.27,15.11 -60.45,7.56 -22.67,-7.56 -44.08,-20.15 -65.48,-40.3 -20.15,-18.89 -31.48,-37.78 -34.01,-55.42 -2.52,-20.14 7.56,-33.99 31.49,-40.29 13.85,-5.04 30.22,-2.52 51.63,5.03 18.89,8.82 37.78,20.16 54.15,34.01 17.63,15.11 28.97,30.22 34,46.59 5.04,16.38 1.26,31.48 -11.33,42.82" /><path
         id="path72"
         style="fill:#f6110c;fill-opacity:1;fill-rule:nonzero;stroke:none"
         d="m 3675.96,1760.37 c 47.85,18.89 80.59,27.71 98.23,25.19 l -1.26,17.63 c -54.16,7.55 -112.08,-20.15 -173.79,-81.86 12.59,10.08 37.77,22.67 76.82,39.04" /><path
         id="path74"
         style="fill:#714031;fill-opacity:1;fill-rule:nonzero;stroke:none"
         d="m 4583.93,2607.89 c -7.56,-12.59 -13.86,-22.66 -20.15,-28.96 1.26,11.34 5.04,22.67 11.33,35.26 -52.89,-34 -91.93,-86.89 -118.38,-158.67 l -10.07,-30.23 c -3.78,-12.59 -8.81,-21.41 -16.37,-26.44 6.3,10.07 8.82,21.41 10.08,32.74 -50.37,-52.89 -84.38,-108.3 -103.27,-162.45 -21.4,-22.68 -37.78,-41.56 -47.85,-57.93 -12.59,-20.15 -20.15,-44.08 -22.67,-70.53 -25.19,-10.06 -42.82,-22.66 -52.89,-36.51 -8.81,-12.6 -15.12,-34.01 -18.89,-62.97 -28.97,-23.92 -51.64,-46.59 -66.75,-70.52 -16.36,-23.93 -28.96,-52.89 -37.78,-88.16 -22.66,-10.07 -37.78,-18.89 -44.07,-26.44 -7.56,-8.81 -12.59,-23.93 -15.11,-45.34 l -79.34,-60.44 c -28.97,-23.93 -51.63,-46.6 -68,-69.26 l 73.04,-99.49 25.18,-26.45 c 47.85,2.52 94.46,21.42 141.05,56.67 l 79.34,90.68 95.7,90.66 c 46.6,49.12 71.78,84.38 75.56,105.78 -23.92,-8.81 -44.08,-10.07 -57.92,-3.77 10.07,1.26 18.89,2.52 23.92,5.04 5.04,2.52 10.08,7.55 16.37,16.37 167.49,227.93 318.61,413.06 453.36,552.84 l -56.67,5.04 142.3,73.03 c 15.11,21.41 47.85,37.79 99.49,50.38 l 60.44,16.37 c 21.41,7.56 39.05,18.89 52.9,31.49 l -86.9,-5.04 c 15.12,7.55 32.74,12.59 52.89,17.63 l 55.41,1.26 c 50.38,-16.37 100.75,-16.37 152.38,2.51 l 46.6,-12.59 27.7,-1.26 c 25.18,1.26 61.71,-3.78 107.04,-15.11 23.94,0 45.34,7.56 64.23,22.67 26.45,7.55 41.56,20.15 46.59,39.04 2.52,8.82 1.27,28.96 -5.03,60.44 22.67,31.48 26.44,56.67 10.07,75.56 -11.33,11.34 -35.25,23.93 -75.56,36.53 -7.55,31.48 -23.92,56.66 -50.37,74.3 -17.63,11.33 -47.85,22.67 -88.15,34 -37.78,17.63 -89.42,23.93 -154.89,18.88 -36.53,-3.77 -88.16,-12.59 -154.91,-27.7 -98.22,-11.33 -188.89,-68 -274.53,-168.75 -65.48,-39.03 -124.67,-93.19 -177.56,-161.19 l -18.89,-28.97" /><path
         id="path76"
         style="fill:#ffffff;fill-opacity:1;fill-rule:nonzero;stroke:none"
         d="m 1482.22,526.234 c 62.97,-30.222 178.83,-51.629 348.83,-64.222 173.79,-12.594 308.54,-7.555 402.98,13.847 -280.82,-2.515 -531.43,13.86 -751.81,50.375" /><path
         id="path78"
         style="fill:#ffffff;fill-opacity:1;fill-rule:nonzero;stroke:none"
         d="m 3941.68,76.6602 c -10.08,2.5156 -20.16,-2.5196 -28.97,-13.8516 -11.34,-10.0742 18.89,-18.8906 90.67,-26.4492 l 248.09,-16.3672 c 103.26,-2.5195 192.67,-2.5195 268.23,1.2578 85.64,5.0391 134.75,12.5938 148.6,25.1875 -284.6,-21.4141 -526.39,-10.0781 -726.62,30.2227" /><path
         id="path80"
         style="fill:#faf0e7;fill-opacity:1;fill-rule:nonzero;stroke:none"
         d="m 2977.03,1727.63 c -142.3,8.81 -235.49,22.67 -280.82,39.04 l -55.41,-44.08 c 238.01,-35.26 520.09,-51.63 847.52,-47.85 -1.26,8.81 2.52,16.37 11.33,21.41 -6.29,3.77 -10.07,11.33 -12.59,21.4 -201.49,-1.26 -371.5,1.26 -510.03,10.08" /><path
         id="path82"
         style="fill:#faf0e7;fill-opacity:1;fill-rule:nonzero;stroke:none"
         d="m 3500.91,1669.7 c 1.26,-30.22 3.78,-47.86 7.56,-50.37 7.56,-3.78 22.66,15.11 47.85,54.15 -16.37,0 -32.74,5.03 -47.85,12.59 -5.04,-2.52 -7.56,-7.56 -7.56,-16.37" /><path
         id="path84"
         style="fill:#faf0e7;fill-opacity:1;fill-rule:nonzero;stroke:none"
         d="m 3508.47,1703.7 c 5.04,-6.3 11.33,-10.07 18.89,-12.59 16.37,-6.3 30.22,-7.56 41.56,-6.3 -16.38,25.19 -32.75,42.82 -46.6,52.9 -12.59,2.52 -20.15,-2.53 -22.67,-12.6 -1.26,-6.3 1.26,-12.59 8.82,-21.41" /><path
         id="path86"
         style="fill:#faf0e7;fill-opacity:1;fill-rule:nonzero;stroke:none"
         d="m 3625.59,1720.07 c -25.2,-12.59 -32.75,-18.89 -21.41,-17.62 99.48,22.66 180.08,30.22 240.52,22.66 6.3,50.37 -37.77,60.45 -130.97,31.48 -31.48,-10.07 -60.44,-22.66 -88.14,-36.52" /><path
         id="path88"
         style="fill:#faf0e7;fill-opacity:1;fill-rule:nonzero;stroke:none"
         d="m 3624.32,1785.56 c -20.14,-21.41 -31.48,-42.82 -35.26,-62.97 50.38,70.52 112.08,100.75 185.13,93.19 1.25,22.67 -7.56,35.26 -25.19,37.79 -16.37,2.51 -36.52,-2.53 -61.71,-16.38 -23.93,-13.85 -45.33,-30.22 -62.97,-51.63" /><path
         id="path90"
         style="fill:#faf0e7;fill-opacity:1;fill-rule:nonzero;stroke:none"
         d="m 3575.21,1718.81 c -5.03,20.15 -11.33,34.01 -18.89,39.04 h -12.59 c -6.3,-2.52 -8.81,-6.29 -8.81,-11.33 18.88,-20.15 32.73,-39.04 40.29,-57.93 6.3,0 6.3,10.07 0,30.22" /><path
         id="path92"
         style="fill:#ffffff;fill-opacity:1;fill-rule:nonzero;stroke:none"
         d="m 1793.27,701.285 -27.7,-23.93 c 102,0 204,16.372 308.53,49.114 l -11.33,31.488 c -104.53,-30.23 -193.94,-47.859 -269.5,-56.672" /><path
         id="path94"
         style="fill:#ffffff;fill-opacity:1;fill-rule:nonzero;stroke:none"
         d="m 3929.08,197.555 22.67,-25.188 c 64.22,1.258 124.68,10.074 180.08,25.188 66.74,17.633 137.27,49.117 210.3,90.668 2.53,15.117 3.79,25.187 2.53,28.968 l -17.63,22.668 2.51,20.145 -10.07,7.559 c -136,-115.856 -269.49,-166.231 -399.2,-148.602 0,-7.559 3.77,-15.109 8.81,-21.406" /><path
         id="path96"
         style="fill:#ffffff;fill-opacity:1;fill-rule:nonzero;stroke:none"
         d="m 2769.24,802.031 c -44.07,6.293 -81.85,18.887 -110.81,36.52 -66.75,-7.559 -120.9,-22.672 -162.45,-45.336 -8.82,-32.746 -11.34,-71.785 -6.3,-117.117 40.3,18.886 71.78,28.961 94.45,30.222 98.23,-45.34 173.78,-62.965 225.42,-54.152 -3.78,15.113 -13.85,32.738 -28.97,55.414 -6.3,23.926 -8.81,55.406 -11.34,94.449" /><path
         id="path98"
         style="fill:#ffffff;fill-opacity:1;fill-rule:nonzero;stroke:none"
         d="m 2337.3,1504.73 c -23.92,-1.26 -37.78,-20.15 -41.56,-54.15 -6.29,-62.97 1.26,-114.6 22.67,-153.64 18.89,-32.74 45.34,-51.63 78.07,-56.67 l 16.38,1.27 15.11,6.29 22.67,2.51 -2.52,25.19 c -6.3,40.3 -1.26,76.82 16.37,107.04 15.11,27.71 36.52,44.08 60.45,49.12 -28.96,-18.89 -49.12,-44.08 -59.19,-75.56 83.11,-103.26 128.45,-216.6 134.75,-340.02 -32.75,146.08 -79.34,253.12 -139.79,319.87 -3.77,-17.63 -5.03,-36.52 -1.26,-56.67 16.37,-113.34 17.64,-234.23 6.3,-362.689 l -6.3,-33.992 c -3.77,-15.117 -5.04,-26.453 -5.04,-35.27 0,-25.187 13.86,-37.777 40.31,-37.777 40.29,21.41 88.15,35.262 143.56,41.563 l -31.49,28.957 c 61.71,-32.743 109.57,-51.629 142.31,-55.403 h 27.7 c 17.63,7.551 28.97,17.625 32.75,31.477 23.92,74.304 16.36,157.414 -22.67,248.094 -23.93,59.18 -74.3,141.04 -148.6,246.82 56.67,-147.34 83.11,-259.41 78.08,-336.23 l -44.08,202.75 c -21.41,81.85 -46.6,144.82 -75.56,191.41 l 13.85,-12.59 c 113.34,-18.89 244.31,-22.67 392.91,-11.34 173.79,13.86 295.94,45.34 366.46,96.98 -27.7,-2.53 -54.15,1.25 -81.85,11.32 l -107.04,-5.03 c -10.08,-13.85 -32.75,-20.15 -68.01,-22.67 -35.26,-1.26 -69.26,3.78 -104.52,12.59 -119.64,-40.29 -219.13,-46.59 -298.46,-16.37 -45.33,-21.41 -86.9,-30.22 -127.19,-26.45 -3.78,-6.29 -10.08,-10.07 -18.89,-13.85 18.89,20.15 23.93,39.05 18.89,55.41 -6.3,17.64 -25.19,31.49 -56.67,40.3 -17.63,5.04 -40.3,1.27 -66.75,-12.59 l -79.33,-51.63 c -12.6,-7.56 -23.93,-6.3 -34.01,6.29 l 15.12,-2.51 c 5.04,-1.26 10.07,1.25 13.85,5.03 l 20.15,16.37 c -18.89,20.15 -37.78,28.97 -57.93,26.45" /><path
         id="path100"
         style="fill:#ffffff;fill-opacity:1;fill-rule:nonzero;stroke:none"
         d="m 2179.89,1524.88 -6.3,-17.63 c 7.56,-8.82 20.15,-20.15 37.78,-34 -22.67,8.82 -36.52,15.11 -40.3,20.14 -1.26,-12.59 0,-22.67 3.78,-31.48 8.81,-18.89 27.7,-37.78 55.41,-57.93 l 50.37,32.75 2.51,28.96 c -42.81,18.89 -76.81,37.78 -103.25,59.19" /><path
         id="path102"
         style="fill:#ffffff;fill-opacity:1;fill-rule:nonzero;stroke:none"
         d="m 2309.59,1218.86 c 7.56,12.6 12.6,26.45 13.86,44.07 l -3.78,5.05 c -119.63,-147.34 -151.12,-275.796 -91.93,-386.613 -40.3,41.555 -51.63,103.266 -34,182.593 17.63,79.34 56.67,149.86 118.37,214.09 -11.33,17.63 -20.15,39.04 -25.18,64.23 -66.75,-76.82 -118.38,-161.2 -154.9,-251.86 18.89,84.37 70.52,175.04 151.11,272.01 -2.51,17.63 -3.77,36.52 -2.51,56.67 -56.67,-30.23 -99.48,-73.05 -130.97,-129.71 -11.34,-21.41 -23.93,-47.85 -36.52,-81.86 l -35.26,-88.15 c -25.18,-20.16 -40.3,-49.11 -44.08,-89.42 -2.51,-22.66 5.04,-36.519 20.16,-40.292 h 27.7 l 39.04,5.035 c 25.18,-96.969 59.19,-144.82 104.53,-144.82 51.62,6.293 79.32,88.148 81.85,245.567 13.85,40.3 15.11,80.6 2.51,123.41" /><path
         id="path104"
         style="fill:#ffffff;fill-opacity:1;fill-rule:nonzero;stroke:none"
         d="m 2113.14,978.336 -18.89,-2.52 -16.37,-104.523 c -6.3,-40.301 -7.56,-71.785 -7.56,-93.195 3.78,-59.18 34,-79.332 89.42,-60.446 -26.45,47.852 -8.82,71.786 51.63,71.786 v 1.257 l 44.08,6.293 c 13.85,3.785 25.18,13.852 32.74,26.446 l 1.26,1.265 c 3.77,18.887 1.25,37.778 -5.04,55.403 -11.34,-17.625 -23.93,-30.219 -40.3,-39.036 -7.56,-3.773 -13.85,-6.3 -20.15,-6.3 l -20.15,6.3 c -11.33,3.778 -22.66,11.336 -32.74,18.891 -13.86,-7.555 -21.41,-26.445 -25.19,-54.152 -3.77,31.488 0,55.41 13.86,66.746 -18.9,23.929 -34.01,59.187 -46.6,105.785" /><path
         id="path106"
         style="fill:#3c3449;fill-opacity:1;fill-rule:nonzero;stroke:none"
         d="m 1671.13,644.613 -114.61,-26.445 c -41.56,-10.078 -74.3,-23.926 -95.71,-41.563 -15.11,-12.589 -15.11,-25.183 0,-36.515 268.23,-40.293 540.25,-57.93 813.53,-52.887 31.48,12.594 49.11,26.442 55.41,42.813 l -85.64,89.414 c -105.79,-37.778 -259.42,-56.672 -463.43,-54.157 l -25.19,1.262 c -5.04,1.258 -13.85,5.039 -21.4,11.332 -21.41,16.375 -42.82,37.778 -62.96,66.746" /><path
         id="path108"
         style="fill:#3c3449;fill-opacity:1;fill-rule:nonzero;stroke:none"
         d="m 3908.93,76.6602 c 8.82,11.332 20.15,15.1093 34,12.5937 198.98,-41.5625 445.81,-52.8945 740.48,-32.7461 11.34,5.0391 13.86,11.336 6.3,16.3672 -18.89,12.5977 -49.11,30.23 -91.92,54.156 l -114.61,64.231 -204.01,-7.559 -46.59,-10.078 c -31.49,-11.332 -60.45,-27.703 -89.42,-46.594 l -26.44,-16.371 -31.49,-2.515 c -62.96,1.261 -114.59,10.07 -157.41,27.699 -13.86,-25.184 -21.41,-44.0745 -18.89,-59.1838" /><path
         id="path110"
         style="fill:#ffffff;fill-opacity:1;fill-rule:nonzero;stroke:none"
         d="m 1975.88,2963.02 -71.78,49.12 c -66.75,-5.05 -115.86,-22.67 -144.83,-52.89 -23.93,-25.19 -37.78,-61.71 -42.82,-112.08 -3.77,1.26 -2.51,-10.08 6.3,-35.27 8.82,-27.7 20.15,-55.4 35.26,-81.86 45.34,-79.33 94.45,-114.59 149.86,-105.78 37.78,5.04 70.52,18.9 98.22,40.31 25.2,18.88 44.08,44.07 56.68,71.77 12.59,28.97 16.37,57.93 13.85,86.9 -3.78,31.48 -16.37,59.18 -35.26,83.11 -13.86,17.63 -35.27,35.27 -65.48,56.67" /><path
         id="path112"
         style="fill:#ffffff;fill-opacity:1;fill-rule:nonzero;stroke:none"
         d="m 2334.78,2952.95 c -31.48,-37.78 -44.08,-76.82 -34,-114.6 18.89,-76.82 52.89,-128.45 102.01,-156.16 44.07,-25.18 91.93,-26.44 144.81,-6.29 50.38,18.89 91.94,54.14 122.16,104.52 34.01,55.42 47.85,114.6 40.3,177.56 -21.41,49.11 -56.67,80.6 -108.3,91.94 -44.08,11.33 -93.19,6.29 -144.82,-13.85 -51.64,-20.16 -91.94,-46.6 -122.16,-83.12" /><path
         id="path114"
         style="fill:#1c2a8f;fill-opacity:1;fill-rule:nonzero;stroke:none"
         d="m 2920.36,2563.82 -27.7,37.78 -7.55,-32.75 c -5.04,-16.37 -8.82,-26.44 -12.6,-31.47 l -27.71,-18.9 c -122.14,-71.78 -268.23,-143.56 -436.98,-216.6 2.52,-13.85 2.52,-28.96 0,-46.59 l 10.07,1.26 c 93.2,93.19 193.94,134.74 302.24,125.93 46.6,-5.04 90.67,-18.89 130.98,-42.82 39.03,-23.93 70.52,-54.15 94.44,-91.93 28.97,-44.08 42.81,-93.19 42.81,-147.34 -1.25,-47.85 -13.84,-95.71 -39.03,-142.3 -23.93,-45.34 -55.41,-81.86 -94.45,-110.82 -40.3,-30.23 -83.11,-46.6 -127.19,-49.12 l -16.38,-17.63 7.56,-2.52 c 102.01,7.56 209.05,32.74 317.36,74.3 -90.68,-50.37 -183.87,-79.34 -280.84,-83.12 127.19,-28.95 372.77,-41.55 734.19,-39.03 6.3,17.62 16.37,23.92 35.26,21.41 3.78,15.11 12.59,20.15 27.7,17.62 -51.63,163.71 -122.15,316.1 -212.82,458.4 -91.93,141.05 -188.9,251.87 -293.43,331.21 -25.18,-15.12 -50.37,-23.94 -76.81,-25.2 -5.04,-16.37 -20.15,-31.48 -45.34,-46.59 16.37,22.66 26.45,39.04 26.45,47.85 -8.82,2.53 -18.89,11.34 -30.23,28.97" /><path
         id="path116"
         style="fill:#1c2a8f;fill-opacity:1;fill-rule:nonzero;stroke:none"
         d="m 2055.21,2121.8 c 34,13.85 71.78,23.92 114.6,28.96 l 16.37,15.12 c -44.07,42.81 -79.34,89.41 -107.04,143.55 l -71.78,13.86 c -5.04,-60.45 0,-125.93 15.11,-196.46 l 32.74,-5.03" /><path
         id="path118"
         style="fill:#1c2a8f;fill-opacity:1;fill-rule:nonzero;stroke:none"
         d="m 2232.77,1635.7 c -37.77,-10.07 -71.77,-16.37 -99.48,-17.63 10.07,-49.11 61.71,-94.45 152.38,-137.27 8.82,27.71 27.71,41.56 54.15,40.3 26.45,0 47.86,-11.33 64.22,-35.26 44.08,37.78 85.64,54.14 124.67,46.6 28.97,-5.05 49.12,-16.38 60.45,-34.01 11.34,-17.63 12.6,-34 3.78,-50.37 37.78,-8.82 115.86,21.41 232.97,91.92 -35.25,-30.21 -69.26,-54.14 -103.25,-71.77 74.29,-23.93 163.71,-17.63 266.97,16.37 l -35.26,15.11 104.52,-20.15 c 44.07,-6.29 79.34,-1.26 103.27,12.59 -18.89,6.3 -41.56,16.38 -68,31.49 l 84.37,-22.67 c 32.74,-6.29 62.96,-6.29 89.41,0 -21.41,10.08 -42.82,22.67 -64.23,37.78 84.38,-35.26 144.83,-50.37 181.34,-45.34 13.86,12.6 23.93,27.71 32.75,46.59 l -37.78,2.53 c 46.59,0 85.64,10.07 118.37,32.74 32.74,22.67 57.93,55.41 73.05,99.49 l -2.52,-1.26 c -28.97,-45.34 -50.38,-68.01 -62.97,-69.27 -10.07,-1.26 -16.37,20.16 -18.89,59.19 -318.61,-1.26 -608.25,13.86 -866.41,45.34 -66.75,-45.34 -133.49,-74.3 -200.24,-88.15 -73.03,-15.12 -134.74,-11.34 -187.64,15.11" /><path
         id="path120"
         style="fill:#1c2a8f;fill-opacity:1;fill-rule:nonzero;stroke:none"
         d="m 2167.3,1534.95 c -27.71,25.19 -45.35,51.63 -52.9,81.86 -61.7,1.26 -115.85,23.92 -164.97,65.49 -79.34,-22.67 -128.45,-12.6 -148.6,30.22 l -10.07,2.52 c -68.01,-23.93 -117.12,-30.23 -149.87,-21.41 -21.4,-21.41 -46.59,-32.75 -75.56,-31.49 -26.44,1.26 -47.85,11.34 -64.22,28.97 -88.15,-44.08 -152.38,-108.3 -192.68,-191.42 -35.25,-75.56 -47.85,-157.41 -36.52,-245.56 11.34,-84.38 41.56,-159.94 90.68,-226.68 52.88,-68.005 117.11,-114.602 192.68,-136.012 l 44.07,-15.11 47.85,-5.035 c -20.14,-10.078 -44.08,-12.59 -68,-6.297 30.22,-42.824 60.45,-75.558 93.19,-95.707 31.48,-18.894 73.04,-31.484 123.41,-37.781 34,-5.039 80.6,25.187 137.27,90.664 -1.26,-12.59 -11.34,-28.957 -31.49,-49.109 37.79,-15.106 90.68,1.257 156.16,50.371 2.52,23.925 6.29,60.453 13.85,108.304 -89.41,11.332 -158.67,32.746 -209.04,65.489 -42.82,27.703 -74.3,66.733 -91.93,115.853 -73.05,20.15 -117.12,74.3 -129.72,162.45 -40.29,15.11 -57.92,60.45 -52.89,137.27 7.56,-65.48 23.93,-104.53 50.38,-115.86 -3.79,25.19 -3.79,52.9 -1.26,84.38 15.11,-83.12 26.45,-136.01 36.52,-162.46 17.63,-46.59 49.11,-75.56 90.67,-88.15 l -10.08,54.15 c 41.56,-146.08 148.61,-225.415 321.13,-234.235 l 3.78,22.668 c -17.63,0 -32.74,2.523 -44.08,8.816 -7.56,3.774 -11.33,8.821 -13.85,13.852 l -2.52,26.449 c -1.25,39.04 13.85,74.3 45.33,104.52 17.64,47.86 31.49,84.38 42.82,108.3 -20.14,17.64 -35.26,39.05 -49.11,64.23 -73.04,70.52 -103.26,146.08 -89.41,226.68 2.52,-69.26 27.71,-133.49 74.3,-192.68 -12.59,37.78 -22.67,95.71 -28.97,175.05 16.38,-69.27 26.45,-114.6 34.01,-134.75 16.36,-50.37 39.04,-89.41 68,-120.89 28.96,61.7 64.23,109.56 104.52,143.56 -30.22,21.41 -49.11,41.56 -57.92,61.7 -7.56,17.64 -5.05,44.08 5.04,76.82" /><path
         id="path122"
         style="fill:#1c2a8f;fill-opacity:1;fill-rule:nonzero;stroke:none"
         d="m 2407.82,1223.9 h -3.78 c -27.7,2.52 -51.63,12.6 -71.77,30.23 0,-17.63 -2.52,-31.49 -8.82,-39.05 l 2.52,-10.06 c 20.14,-8.82 39.03,-21.41 55.41,-34.01 l 26.44,52.89" /><path
         id="path124"
         style="fill:#1c2a8f;fill-opacity:1;fill-rule:nonzero;stroke:none"
         d="m 2453.16,1235.23 -21.41,-1.25 -11.34,-7.56 c -16.37,-34 -25.18,-55.41 -27.7,-64.23 l 25.18,-22.66 -26.44,16.36 c -2.51,-12.59 -2.51,-23.92 -1.26,-35.25 3.78,-22.67 12.6,-47.85 25.19,-75.56 l 40.3,-71.787 c 8.81,84.377 8.81,171.267 -2.52,261.937" /><path
         id="path126"
         style="fill:#1c2a8f;fill-opacity:1;fill-rule:nonzero;stroke:none"
         d="m 2920.36,1366.2 c -8.81,-34 -23.92,-59.19 -46.59,-75.56 17.63,26.45 28.96,51.64 34,75.56 -102,-2.52 -195.19,2.53 -282.09,13.86 98.23,-105.78 163.71,-214.09 195.2,-326.16 64.23,98.22 151.12,173.78 263.2,226.67 105.78,51.63 211.56,71.78 314.83,61.71 l 17.63,-2.52 c 3.78,-2.52 5.04,-6.3 5.04,-13.86 -1.26,-32.74 -37.78,-52.89 -108.3,-61.7 l 44.07,20.15 c 16.37,8.81 28.96,18.89 37.78,28.96 6.3,6.3 7.56,11.34 3.78,11.34 h -16.37 c -128.46,1.25 -239.27,-25.19 -333.72,-79.34 -71.79,-41.56 -143.57,-107.04 -215.35,-196.46 137.27,81.86 293.42,125.94 468.48,132.23 -186.39,-30.22 -343.81,-81.86 -473.51,-157.41 15.11,-70.522 11.33,-136.006 -8.82,-196.451 118.37,-102.008 234.23,-181.348 345.05,-240.535 16.38,-7.559 36.53,-11.332 57.93,-10.079 l 59.19,10.079 c -37.77,-16.375 -71.78,-22.668 -103.26,-21.411 13.85,-31.484 31.48,-56.668 55.41,-73.035 20.14,-13.855 46.59,-25.187 81.85,-34.004 12.59,-31.484 28.97,-54.152 47.86,-65.484 20.15,-11.336 46.59,-16.371 79.33,-11.336 l 117.12,-91.93 c 39.04,-28.961 71.78,-50.371 99.49,-62.964 32.74,-15.118 66.74,-23.926 100.74,-23.926 37.78,-2.52 79.34,6.293 125.94,21.406 -41.57,2.52 -81.86,21.406 -120.9,54.148 88.15,-46.593 170.01,-54.148 245.57,-18.886 -21.41,-13.856 -42.82,-22.668 -62.97,-27.707 93.19,-13.856 209.05,30.222 346.31,133.488 l 23.93,17.629 6.3,3.785 c 17.62,54.145 23.92,101.996 17.62,143.559 -3.77,28.964 -15.1,59.183 -35.25,93.187 47.85,-37.777 61.71,-110.816 42.82,-220.379 59.18,45.336 83.11,110.821 70.51,193.934 -11.33,74.297 -49.1,157.414 -113.33,251.867 -56.67,83.113 -127.2,164.965 -211.57,246.825 -79.34,75.56 -153.63,134.75 -225.42,178.83 v 21.4 c -5.03,13.86 -22.66,23.93 -50.37,32.74 -8.81,23.93 -10.07,54.15 -2.52,86.9 -15.11,3.78 -26.44,12.59 -32.74,25.18 -90.67,99.48 -157.41,181.34 -197.72,248.09 1.26,-7.55 -7.54,-28.96 -27.7,-62.96 -18.89,-32.75 -31.48,-51.64 -39.04,-55.42 17.63,-13.85 34,-37.77 46.6,-71.78 -23.94,31.49 -44.08,52.9 -60.45,62.97 -20.15,-11.34 -44.08,-17.63 -69.27,-20.15 l -6.29,-10.07 c 36.52,-3.79 65.49,-13.86 86.89,-32.75 12.6,-10.07 26.45,-30.22 42.82,-57.93 -44.07,49.11 -89.41,75.56 -134.75,80.6 -30.22,-49.11 -95.71,-88.15 -195.19,-115.85 -90.68,-26.45 -193.93,-39.05 -309.8,-39.05" /><path
         id="path128"
         style="fill:#1c2a8f;fill-opacity:1;fill-rule:nonzero;stroke:none"
         d="m 1824.76,713.879 c 32.74,2.512 70.52,10.07 114.6,20.144 l 117.11,30.227 v 39.039 C 1987.21,757.957 1931.8,742.844 1888.98,761.73 l -64.22,-47.851" /><path
         id="path130"
         style="fill:#1c2a8f;fill-opacity:1;fill-rule:nonzero;stroke:none"
         d="m 2329.75,1189.9 c 5.03,-34.01 1.26,-66.74 -8.82,-96.97 -3.78,-86.89 -10.07,-144.825 -20.15,-176.309 16.37,-7.547 37.78,-10.066 64.22,-3.773 26.45,3.773 52.89,3.773 81.86,-2.52 l 6.3,42.82 -5.04,10.075 -112.08,115.857 c 28.96,-16.37 56.67,-39.04 83.12,-69.26 -25.19,41.56 -40.3,79.33 -44.08,109.56 -1.26,12.59 0,26.44 3.78,44.07 l -49.11,26.45" /><path
         id="path132"
         style="fill:#1c2a8f;fill-opacity:1;fill-rule:nonzero;stroke:none"
         d="m 2164.77,764.25 c -7.56,-10.078 -5.03,-23.934 6.3,-42.82 l 34,22.672 c 6.3,7.554 10.08,17.628 8.81,32.746 -25.18,1.25 -41.55,-2.528 -49.11,-12.598" /><path
         id="path134"
         style="fill:#1c2a8f;fill-opacity:1;fill-rule:nonzero;stroke:none"
         d="m 2291.96,896.48 c 7.56,-18.89 11.34,-40.304 10.08,-65.488 21.41,12.594 39.03,32.742 50.37,61.703 -28.96,1.266 -47.86,6.301 -56.67,11.332 l -3.78,-7.547" /><path
         id="path136"
         style="fill:#000000;fill-opacity:1;fill-rule:nonzero;stroke:none"
         d="m 1882.69,3112.89 c -55.41,70.51 -96.98,118.37 -123.42,141.04 l -5.04,-68.01 c 32.74,-18.89 62.97,-41.55 86.9,-69.26 39.04,-49.11 71.78,-86.89 99.48,-113.34 41.56,-42.82 83.12,-71.78 122.16,-89.41 -84.38,75.56 -144.82,141.04 -180.08,198.98" /><path
         id="path138"
         style="fill:#000000;fill-opacity:1;fill-rule:nonzero;stroke:none"
         d="m 1565.33,3131.77 c 6.3,32.74 18.89,55.41 37.78,70.52 -12.59,27.71 -25.18,59.19 -37.78,94.45 -20.14,-20.14 -37.78,-54.15 -50.37,-103.26 12.59,-32.74 28.97,-52.89 50.37,-61.71" /><path
         id="path140"
         style="fill:#000000;fill-opacity:1;fill-rule:nonzero;stroke:none"
         d="m 2665.99,3300.52 5.03,66.74 c -41.56,-6.29 -80.59,-30.22 -118.37,-69.26 -60.45,-68 -120.9,-161.19 -178.83,-280.83 10.07,2.52 25.18,20.15 47.85,49.12 l 70.53,94.45 c 68,88.15 127.19,134.74 173.79,139.78" /><path
         id="path142"
         style="fill:#000000;fill-opacity:1;fill-rule:nonzero;stroke:none"
         d="m 2774.28,3228.74 15.11,-31.48 c 1.27,-1.26 6.31,1.26 15.12,5.03 30.22,13.85 52.89,28.97 69.26,45.34 l 2.52,42.82 -17.63,13.85 c -32.75,-31.49 -61.71,-56.67 -84.38,-75.56" /><path
         id="path144"
         style="fill:#000000;fill-opacity:1;fill-rule:nonzero;stroke:none"
         d="m 3040,2955.47 c 21.41,32.74 45.34,36.52 71.78,11.33 -18.89,21.41 -35.26,30.22 -49.11,26.45 -18.89,-3.78 -37.78,-26.45 -55.41,-68.01 -26.44,-62.96 -35.26,-103.26 -26.44,-120.89 3.77,-6.3 10.07,-10.08 20.14,-12.59 l 27.71,-1.26 c 10.07,-25.19 7.56,-50.37 -10.08,-78.08 -17.63,-27.7 -40.29,-37.78 -68,-31.49 -8.82,1.26 -10.08,7.56 -5.04,17.64 l 13.86,23.93 c -18.9,-11.34 -28.96,-22.68 -31.49,-35.27 -1.26,-13.85 5.04,-20.15 22.67,-20.15 23.93,-1.26 44.07,5.04 61.71,20.15 16.37,12.59 27.7,30.22 32.74,50.37 6.29,21.42 5.04,40.31 -3.78,59.19 -10.07,20.16 -26.44,34 -50.37,44.08 3.77,16.37 12.59,42.82 27.7,78.08 l 12.6,25.18 c 46.59,-20.15 68,-64.22 61.7,-132.23 23.93,64.23 6.3,113.34 -52.89,143.57 z m -50.37,-130.98 c 13.85,-3.77 25.19,-11.33 32.74,-22.66 -22.66,-5.04 -34.01,2.52 -32.74,22.66" /><path
         id="path146"
         style="fill:#000000;fill-opacity:1;fill-rule:nonzero;stroke:none"
         d="m 1994.76,2867.32 c -6.29,-12.6 -10.07,-26.45 -10.07,-44.08 0,-16.37 3.78,-31.48 10.07,-44.07 6.3,-11.34 13.86,-17.64 23.93,-17.64 8.81,0 16.37,6.3 22.67,17.64 7.56,12.59 10.07,27.7 10.07,44.07 0,17.63 -2.51,31.48 -10.07,44.08 -6.3,11.33 -13.86,17.63 -22.67,17.63 -10.07,0 -17.63,-6.3 -23.93,-17.63" /><path
         id="path148"
         style="fill:#000000;fill-opacity:1;fill-rule:nonzero;stroke:none"
         d="m 1779.42,2968.06 c 35.26,26.44 79.34,39.03 133.49,35.26 l -12.6,15.11 c -66.74,-3.77 -117.11,-25.18 -152.38,-61.71 -28.95,-32.74 -41.55,-74.3 -39.03,-122.15 3.78,-47.86 21.41,-91.93 54.15,-132.23 35.25,-42.81 78.08,-73.04 130.97,-88.15 -61.71,32.74 -108.31,74.3 -139.79,122.15 -26.44,42.83 -37.78,86.9 -31.48,129.71 5.04,42.83 23.93,75.57 56.67,102.01" /><path
         id="path150"
         style="fill:#000000;fill-opacity:1;fill-rule:nonzero;stroke:none"
         d="m 1756.75,2626.79 c 40.3,-25.19 86.89,-30.23 137.27,-13.86 l -137.27,13.86" /><path
         id="path152"
         style="fill:#000000;fill-opacity:1;fill-rule:nonzero;stroke:none"
         d="m 2344.86,2903.83 c -8.82,0 -15.11,-6.29 -21.41,-17.62 -5.04,-11.34 -7.56,-25.19 -7.56,-41.57 0,-16.36 2.52,-30.21 7.56,-42.81 6.3,-11.33 12.59,-16.37 21.41,-16.37 7.55,0 15.1,5.04 20.14,16.37 6.3,12.6 8.82,26.45 8.82,42.81 0,16.38 -2.52,30.23 -8.82,41.57 -5.04,11.33 -12.59,17.62 -20.14,17.62" /><path
         id="path154"
         style="fill:#000000;fill-opacity:1;fill-rule:nonzero;stroke:none"
         d="m 2195,2626.79 c -41.56,-8.82 -54.16,-34.01 -37.79,-75.56 0,34 12.6,59.18 37.79,75.56" /><path
         id="path156"
         style="fill:#000000;fill-opacity:1;fill-rule:nonzero;stroke:none"
         d="m 2387.68,2551.23 c -44.08,-6.3 -81.86,-20.16 -114.61,-42.82 -31.48,-22.67 -47.84,-44.07 -46.59,-65.48 36.52,40.29 89.41,76.81 161.2,108.3" /><path
         id="path158"
         style="fill:#000000;fill-opacity:1;fill-rule:nonzero;stroke:none"
         d="m 2698.72,2660.78 c -51.63,13.86 -93.19,3.79 -124.67,-31.48 37.78,20.15 79.34,30.23 124.67,31.48" /><path
         id="path160"
         style="fill:#000000;fill-opacity:1;fill-rule:nonzero;stroke:none"
         d="m 2707.54,2978.14 c -15.11,35.25 -40.3,60.44 -74.3,75.55 l -54.15,1.26 c 16.37,-2.52 31.48,-6.29 46.59,-12.59 32.75,-15.11 56.68,-36.52 70.53,-65.48 30.22,-65.49 11.33,-147.34 -54.16,-246.84 37.79,40.31 61.72,84.39 73.05,130.98 10.07,42.81 7.56,81.86 -7.56,117.12" /><path
         id="path162"
         style="fill:#000000;fill-opacity:1;fill-rule:nonzero;stroke:none"
         d="m 2255.45,1718.81 c -68.01,-10.07 -124.68,-2.52 -166.24,21.42 36.52,-49.12 91.94,-55.42 166.24,-21.42" /><path
         id="path164"
         style="fill:#000000;fill-opacity:1;fill-rule:nonzero;stroke:none"
         d="m 2834.73,1266.72 c -5.03,26.44 7.56,55.41 37.78,86.89 -49.11,-27.71 -61.71,-55.41 -37.78,-86.89" /><path
         id="path166"
         style="fill:#000000;fill-opacity:1;fill-rule:nonzero;stroke:none"
         d="m 3961.82,1014.86 c -5.03,-35.27 -45.33,-151.126 -122.15,-347.579 95.71,172.528 136.01,289.645 122.15,347.579" /><path
         id="path168"
         style="fill:#000000;fill-opacity:1;fill-rule:nonzero;stroke:none"
         d="m 3738.92,721.43 c -71.78,-47.848 -136,-62.969 -191.41,-47.848 56.67,-46.605 120.89,-31.488 191.41,47.848" /><path
         id="path170"
         style="fill:#000000;fill-opacity:1;fill-rule:nonzero;stroke:none"
         d="m 4123.02,280.664 c 47.86,16.379 76.82,42.824 86.89,79.34 -57.93,-64.223 -120.89,-86.887 -188.9,-67.996 10.08,-12.594 23.93,-18.891 44.07,-20.153 17.64,-1.257 37.79,1.262 57.94,8.809" /><path
         id="path172"
         style="fill:#000000;fill-opacity:1;fill-rule:nonzero;stroke:none"
         d="m 5287.89,2813.16 -107.05,-66.74 c 51.64,6.29 86.89,28.96 107.05,66.74" /><path
         id="path174"
         style="fill:#000000;fill-opacity:1;fill-rule:nonzero;stroke:none"
         d="m 5359.67,2796.79 c -26.45,-12.59 -50.37,-28.96 -70.53,-49.11 34.02,5.03 57.94,21.41 70.53,49.11" /><path
         id="path176"
         style="fill:#000000;fill-opacity:1;fill-rule:nonzero;stroke:none"
         d="m 5331.96,2722.5 c 30.23,11.33 52.9,25.18 65.49,40.29 -27.71,-6.29 -49.11,-20.15 -65.49,-40.29" /><path
         id="path178"
         style="fill:#000000;fill-opacity:1;fill-rule:nonzero;stroke:none"
         d="m 5426.41,2718.71 c 10.08,12.59 23.93,22.67 41.56,31.49 -22.67,-1.26 -36.52,-12.6 -41.56,-31.49" /><path
         id="path180"
         style="fill:#000000;fill-opacity:1;fill-rule:nonzero;stroke:none"
         d="m 2133.29,2923.98 c -5.04,18.9 -11.34,41.56 -15.11,71.78 -6.29,-30.22 0,-52.88 15.11,-71.78" /><path
         id="path182"
         style="fill:#000000;fill-opacity:1;fill-rule:nonzero;stroke:none"
         d="m 3693.59,1611.77 c 3.78,18.89 7.55,34.01 13.85,46.6 -18.89,-6.3 -22.66,-21.41 -13.85,-46.6" /><path
         id="path184"
         style="fill:#000000;fill-opacity:1;fill-rule:nonzero;stroke:none"
         d="m 3709.96,1600.44 c -1.26,12.59 0,26.45 3.77,40.29 -13.85,-7.55 -15.1,-21.4 -3.77,-40.29" /><path
         id="path186"
         style="fill:#000000;fill-opacity:1;fill-rule:nonzero;stroke:none"
         d="m 3738.92,1571.47 12.6,28.97 c -16.37,-5.04 -20.15,-15.12 -12.6,-28.97" /><path
         id="path188"
         style="fill:#000000;fill-opacity:1;fill-rule:nonzero;stroke:none"
         d="m 3618.03,1833.41 c -17.64,1.26 -36.52,6.3 -55.41,15.11 12.59,-18.89 31.48,-23.93 55.41,-15.11" /><path
         id="path190"
         style="fill:#000000;fill-opacity:1;fill-rule:nonzero;stroke:none"
         d="m 2987.11,1434.2 c -119.63,-15.1 -235.49,-17.62 -351.35,-8.81 113.34,-25.18 230.45,-22.66 351.35,8.81" /><path
         id="path192"
         style="fill:none;stroke:#000000;stroke-width:2;stroke-linecap:round;stroke-linejoin:round;stroke-miterlimit:4;stroke-dasharray:none;stroke-opacity:1"
         d="m 2987.11,1434.2 c -120.9,-31.47 -238.01,-33.99 -351.35,-8.81 115.86,-8.81 231.72,-6.29 351.35,8.81" /><path
         id="path194"
         style="fill:#000000;fill-opacity:1;fill-rule:nonzero;stroke:none"
         d="m 3582.77,3794.17 c 32.74,37.78 112.07,115.86 241.79,234.24 142.3,130.97 241.79,227.93 299.72,288.38 -159.94,-3.78 -333.72,-27.7 -518.85,-69.26 -149.85,-32.74 -321.12,-81.86 -515.06,-147.34 159.94,183.86 375.29,306.01 648.55,366.47 -114.6,-12.6 -226.67,-47.87 -334.98,-103.27 -123.41,-64.23 -248.08,-158.68 -374.01,-282.09 -143.56,182.6 -323.65,297.2 -541.51,343.79 -100.74,22.68 -205.28,26.45 -309.79,15.12 -105.79,-12.6 -207.79,-41.56 -306.02,-86.89 -18.89,100.74 -57.93,198.97 -118.38,292.15 -49.11,79.35 -117.11,159.94 -202.75,241.8 89.41,-108.31 156.16,-198.98 200.24,-272.02 60.44,-98.22 94.45,-188.9 102,-270.75 l -8.81,-5.04 c -166.24,177.57 -348.84,321.13 -545.29,429.43 -172.53,96.97 -321.124,148.6 -443.28,156.15 224.15,-240.53 351.35,-396.68 381.57,-467.2 -105.78,78.08 -202.74,136 -292.156,173.78 -74.305,31.48 -148.606,51.63 -225.422,61.71 83.117,-20.15 162.449,-47.86 236.754,-81.85 90.674,-41.57 186.374,-99.5 285.864,-172.53 l 1.26,-10.07 c -220.39,61.7 -425.651,89.4 -610.772,84.37 -198.973,-5.04 -358.903,-49.12 -477.282,-132.23 352.61,-15.11 595.66,-108.31 727.887,-280.83 -337.5,90.67 -632.18,90.67 -884.043,3.77 410.539,-227.93 730.406,-438.24 958.344,-630.91 l -387.871,61.71 c -125.93,16.37 -212.825,21.4 -259.422,15.1 103.265,-66.73 265.719,-163.71 484.84,-290.9 217.859,-124.67 352.609,-205.27 404.239,-239.27 l -285.86,78.08 c 134.75,-113.34 292.16,-222.9 472.25,-327.42 15.1,-49.11 49.11,-114.6 102,-196.46 -12.59,-10.07 -17.64,-28.96 -16.38,-55.41 -11.33,6.3 -26.44,1.26 -41.55,-15.11 -16.38,-15.11 -25.18,-31.48 -27.71,-49.12 -15.11,-22.66 -23.92,-37.77 -27.7,-46.58 -10.08,-22.68 -13.85,-47.87 -11.34,-74.31 -13.84,-39.03 -13.84,-64.22 0,-76.81 12.6,-12.6 40.3,-15.12 81.86,-5.05 1.26,-31.48 11.34,-60.44 30.23,-88.15 20.14,-30.22 49.11,-55.4 88.15,-74.3 -56.67,-59.18 -95.71,-109.55 -118.38,-152.37 -42.82,-79.34 -26.44,-125.94 47.85,-141.04 -3.77,-12.6 -5.03,-28.97 -3.77,-49.12 0,-16.37 2.52,-28.97 5.04,-36.52 -80.61,-32.74 -142.31,-88.16 -185.13,-168.75 -41.55,-76.82 -60.44,-159.93 -57.93,-253.12 3.79,-94.46 30.23,-177.57 79.35,-250.61 52.88,-80.594 127.18,-134.747 221.63,-163.711 54.15,-90.668 134.75,-142.301 243.05,-156.157 -16.37,-17.629 -44.07,-34.004 -88.15,-49.109 -23.93,-7.563 -65.49,-18.895 -123.42,-34.004 -52.88,-12.594 -89.4,-22.668 -108.29,-30.223 -31.48,-12.597 -45.34,-26.449 -42.82,-41.558 6.29,-34.004 60.44,-62.961 162.45,-85.637 90.67,-20.148 200.23,-31.48 326.16,-35.254 125.94,-2.527 229.2,3.774 309.8,18.887 89.41,17.629 125.93,42.816 109.55,76.82 l -79.33,83.11 c -35.26,35.265 -61.7,64.222 -75.56,89.414 17.63,11.332 28.97,22.672 36.52,31.48 7.56,11.332 11.33,23.926 7.56,37.781 35.26,1.262 57.93,12.594 68,32.743 39.04,16.371 64.22,44.074 74.3,83.117 21.41,7.554 46.6,7.554 74.3,0 -6.3,-27.707 -8.81,-49.11 -6.3,-64.227 2.52,-18.89 15.12,-31.484 37.78,-35.258 -7.55,-22.671 -11.33,-47.859 -10.07,-76.816 l 6.3,-70.527 c 51.63,26.449 86.89,39.043 105.78,39.043 107.04,-49.114 190.16,-65.489 250.6,-50.379 -2.51,26.453 -13.84,52.89 -34,78.078 -8.81,35.262 -12.59,66.746 -13.85,94.449 l 20.15,11.336 c 75.56,-64.223 130.97,-109.559 164.97,-136.012 62.97,-47.851 125.94,-88.148 188.9,-119.633 16.37,-62.964 65.48,-104.519 146.08,-123.406 25.18,-61.711 70.52,-89.414 136.01,-79.344 l 107.04,-84.375 c 40.29,-30.218 76.82,-52.89 108.3,-66.746 84.37,-39.035 167.49,-36.519 250.61,6.297 -1.26,-8.812 0,-17.625 7.55,-26.437 l 17.63,-20.153 c -50.37,-70.523 -52.89,-115.859 -8.82,-139.7848 481.07,-49.1133 740.49,-41.5586 779.52,21.4102 13.86,21.4062 2.53,40.2929 -35.26,56.6716 -120.89,57.926 -222.9,117.114 -302.23,181.336 5.04,21.406 0,40.301 -16.37,55.41 3.77,13.852 1.25,23.926 -8.82,30.227 62.97,41.562 98.23,95.707 104.52,162.449 6.3,65.488 -13.84,146.078 -62.96,240.531 -161.19,243.051 -324.9,411.801 -491.14,504.991 1.26,28.96 -17.63,49.11 -55.41,57.93 -6.3,15.11 -5.03,37.78 3.78,70.52 l 35.26,5.04 c 16.37,5.03 32.75,12.59 47.86,21.4 41.55,26.45 62.96,60.45 66.74,104.53 51.63,2.52 100.75,21.41 146.09,55.41 l 40.29,41.55 c 18.89,18.9 32.74,35.27 42.81,49.13 148.61,139.77 202.76,215.33 163.72,227.93 l 195.19,255.64 c 32.74,44.07 75.56,95.71 129.71,154.89 l 142.31,156.16 -31.49,2.52 90.67,46.59 c 16.38,23.93 40.3,35.26 70.53,36.53 l 76.81,21.4 c 32.75,11.34 56.67,27.71 73.05,51.64 52.89,-18.9 104.51,-18.9 156.15,0 l 35.26,-8.82 41.56,-3.78 c 22.67,0 56.67,-5.04 100.74,-16.37 28.97,0 54.16,8.81 75.57,25.19 28.96,6.3 46.59,20.15 54.14,41.55 5.04,16.38 3.79,39.04 -1.26,70.53 42.82,57.93 20.16,100.74 -70.52,129.7 -8.81,50.38 -57.93,88.16 -146.07,110.83 -60.46,31.48 -166.24,27.7 -319.87,-7.56 -47.86,-5.04 -98.24,-23.93 -149.86,-55.41 -50.38,-31.48 -94.45,-70.52 -133.49,-117.12 -68.01,-39.03 -129.71,-96.96 -186.38,-172.52 -66.74,-34 -114.6,-95.71 -143.56,-182.6 -60.45,-61.71 -99.49,-120.9 -117.12,-177.57 -45.33,-42.81 -69.26,-84.37 -71.78,-125.93 -42.82,-15.12 -66.74,-49.11 -73.04,-102.01 -25.19,-21.4 -45.34,-41.55 -59.19,-61.7 -20.15,-26.45 -34,-57.93 -42.82,-94.45 l -39.04,-22.67 c -12.59,-12.59 -20.15,-30.22 -22.66,-51.63 l -75.56,-57.93 c -30.23,-23.93 -51.63,-45.34 -62.97,-65.49 l -11.34,12.6 c 12.6,47.85 -12.59,73.04 -75.55,76.82 11.34,52.89 -5.04,78.08 -46.59,78.08 -74.31,113.33 -170.01,246.82 -287.13,400.46 l -311.05,399.21 c 7.55,11.33 28.96,27.7 64.22,50.37 l 115.85,68 c 118.38,68 198.98,123.41 239.28,164.97 -83.12,-25.18 -148.6,-34 -196.46,-27.7 211.57,134.74 366.47,239.26 465.95,312.31 130.98,96.96 197.71,164.97 197.71,201.49 l -206.52,-52.89 c -76.82,-17.63 -141.05,-27.71 -191.42,-30.23 479.81,324.91 721.6,528.92 726.63,608.25 -117.12,-18.89 -250.6,-50.37 -402.98,-94.45 -68.01,-20.14 -205.28,-62.96 -408.02,-128.44 0,8.81 6.29,20.14 15.11,32.73 209.04,104.53 449.58,197.72 724.11,278.32 -259.43,-60.45 -493.65,-144.82 -703.96,-253.13 z M 3058.89,2567.59 c 25.19,18.89 50.37,47.86 76.82,84.38 l 300.97,-386.61 c 112.09,-147.34 207.79,-279.57 287.13,-399.2 -88.15,-36.53 -136.01,-80.6 -142.3,-137.27 0,18.88 -5.04,31.48 -17.63,40.29 -105.78,338.77 -274.53,604.48 -504.99,798.41 z m -1455.78,634.7 c -18.89,-15.11 -31.48,-37.78 -37.78,-70.52 -21.4,8.82 -37.78,28.97 -50.37,61.71 12.59,49.11 30.23,83.12 50.37,103.26 12.6,-35.26 25.19,-66.74 37.78,-94.45 z m 156.16,51.64 c 26.44,-22.67 68.01,-70.53 123.42,-141.04 35.26,-57.94 95.7,-123.42 180.08,-198.98 -39.04,17.63 -80.6,46.59 -122.16,89.41 -27.7,26.45 -60.44,64.23 -99.48,113.34 -23.93,27.71 -54.16,50.37 -86.9,69.26 z m -357.65,-462.17 c -8.81,50.37 -8.81,84.37 0,105.78 10.08,21.41 30.23,28.96 61.72,20.15 l 20.14,-7.56 11.34,-17.63 32.73,-68.01 c -81.85,36.53 -109.55,13.86 -83.1,-66.74 -12.6,73.04 17.62,89.42 93.18,49.12 l 20.15,-40.3 c -20.15,-6.3 -31.48,-21.41 -31.48,-45.33 0,-21.42 7.55,-45.34 23.93,-73.05 15.1,-27.7 33.99,-50.37 56.66,-69.26 25.19,-21.41 46.6,-31.49 69.27,-32.74 l 47.85,-80.6 c -47.85,-13.85 -90.67,-6.3 -130.97,18.89 -27.71,18.89 -59.19,50.37 -91.93,98.23 -55.41,75.56 -89.41,146.08 -99.49,209.05 z M 1428.07,2487 c 12.59,20.15 26.45,27.71 41.56,22.66 3.77,-35.25 20.15,-60.44 47.85,-78.07 -6.29,-22.67 -18.89,-36.52 -37.78,-40.3 -18.89,-5.04 -35.25,-1.26 -50.37,11.33 18.89,7.56 32.74,18.9 42.81,36.52 3.79,5.04 3.79,10.08 -1.26,15.11 -3.77,5.04 -8.81,6.3 -16.36,3.79 -6.3,-2.52 -15.12,-7.56 -22.67,-16.38 l -20.15,-15.11 -1.26,7.56 c -1.26,15.11 5.03,32.74 17.63,52.89 z m 51.63,27.71 c -2.52,17.63 1.26,32.73 10.08,46.59 l 2.52,1.26 25.18,-36.52 c -11.33,-6.3 -25.18,-10.08 -37.78,-11.33 z m 120.9,170.01 c -17.63,1.25 -35.27,-2.53 -50.37,-11.34 -10.08,21.41 -12.6,39.04 -10.08,54.15 1.26,15.11 10.08,25.18 23.93,26.45 z m -44.08,-25.19 c 20.15,10.07 36.52,13.85 51.64,11.33 l 26.43,-50.37 c -18.88,-1.26 -32.73,-5.04 -44.07,-11.33 -12.59,13.84 -22.66,31.48 -34,50.37 z m -28.97,-141.05 c 10.08,-13.85 18.9,-23.93 26.45,-28.96 -20.15,-17.63 -37.78,-26.45 -54.14,-30.23 -11.34,17.64 -18.9,32.75 -22.68,46.6 18.89,1.26 35.27,6.3 50.37,12.59 z m 115.86,85.63 23.93,-44.07 c -20.15,2.52 -41.55,13.85 -62.96,35.26 11.33,7.56 25.18,10.08 39.03,8.81 z m 1027.61,763.15 -5.03,-66.74 c -46.6,-5.04 -105.79,-51.63 -173.79,-139.78 l -70.53,-94.45 c -22.67,-28.97 -37.78,-46.6 -47.85,-49.12 57.93,119.64 118.38,212.83 178.83,280.83 37.78,39.04 76.81,62.97 118.37,69.26 z m 205.27,-76.81 -2.52,-42.82 c -16.37,-16.37 -39.04,-31.49 -69.26,-45.34 -8.81,-3.77 -13.85,-6.29 -15.12,-5.03 l -15.11,31.48 c 22.67,18.89 51.63,44.07 84.38,75.56 z m -31.49,-771.97 27.71,18.9 c 3.78,5.03 7.56,15.1 12.6,31.47 l 7.55,32.75 27.7,-37.78 c 11.34,-17.63 21.41,-26.44 30.23,-28.97 0,-8.81 -10.08,-25.19 -26.45,-47.85 25.19,15.11 40.3,30.22 45.34,46.59 26.44,1.26 51.63,10.08 76.81,25.2 104.53,-79.34 201.5,-190.16 293.43,-331.21 90.67,-142.3 161.19,-294.69 212.82,-458.4 -15.11,2.53 -23.92,-2.51 -27.7,-17.62 -18.89,2.51 -28.96,-3.79 -35.26,-21.41 -361.42,-2.52 -607,10.08 -734.19,39.03 96.97,3.78 190.16,32.75 280.84,83.12 -108.31,-41.56 -215.35,-66.74 -317.36,-74.3 l -7.56,2.52 16.38,17.63 c 44.08,2.52 86.89,18.89 127.19,49.12 39.04,28.96 70.52,65.48 94.45,110.82 25.19,46.59 37.78,94.45 39.03,142.3 0,54.15 -13.84,103.26 -42.81,147.34 -23.92,37.78 -55.41,68 -94.44,91.93 -40.31,23.93 -84.38,37.78 -130.98,42.82 -108.3,8.81 -209.04,-32.74 -302.24,-125.93 l -10.07,-1.26 c 2.52,17.63 2.52,32.74 0,46.59 168.75,73.04 314.84,144.82 436.98,216.6 z m -30.22,-175.04 c 46.6,-21.41 85.63,-55.41 117.12,-102.01 31.48,-45.34 45.33,-93.19 42.82,-144.82 -1.26,-45.34 -13.86,-89.41 -40.3,-133.49 -22.67,-40.29 -52.9,-74.3 -88.15,-102.01 -35.27,-26.44 -69.27,-42.81 -102.01,-46.59 l 26.45,31.49 c -105.78,-98.24 -205.27,-163.71 -298.46,-196.46 -96.97,-35.26 -178.83,-32.74 -245.57,7.56 l -26.44,-16.38 c -113.34,-30.22 -209.05,2.52 -284.61,96.98 -12.59,15.11 -18.89,26.44 -21.41,32.74 -3.78,8.81 -5.04,21.4 -5.04,39.04 -2.52,91.93 20.15,164.96 65.49,220.38 46.59,56.67 114.59,93.19 205.27,109.56 l -13.86,-16.37 28.97,23.92 c 46.59,36.52 89.41,61.71 129.7,75.56 32.75,11.33 73.05,17.63 120.9,20.15 31.49,35.26 69.27,64.23 112.08,85.63 45.34,22.68 90.67,35.27 137.27,39.04 50.37,3.78 96.97,-5.03 139.78,-23.92 z m -454.62,-59.19 37.79,12.59 c 1.25,-15.11 1.25,-28.96 -1.27,-41.55 -76.81,-6.3 -143.55,-32.75 -197.71,-78.08 -22.66,17.63 -42.81,39.04 -59.18,61.7 -10.08,13.86 -22.67,36.52 -39.04,66.75 74.3,-12.59 147.34,-20.15 217.86,-22.67 z m -280.82,25.18 c 27.7,-54.14 62.97,-100.74 107.04,-143.55 l -16.37,-15.12 c -42.82,-5.04 -80.6,-15.11 -114.6,-28.96 l -32.74,5.03 c -15.11,70.53 -20.15,136.01 -15.11,196.46 z m 54.15,-691.36 c 27.71,1.26 61.71,7.56 99.48,17.63 52.9,-26.45 114.61,-30.23 187.64,-15.11 66.75,13.85 133.49,42.81 200.24,88.15 258.16,-31.48 547.8,-46.6 866.41,-45.34 2.52,-39.03 8.82,-60.45 18.89,-59.19 12.59,1.26 34,23.93 62.97,69.27 l 2.52,1.26 c -15.12,-44.08 -40.31,-76.82 -73.05,-99.49 -32.73,-22.67 -71.78,-32.74 -118.37,-32.74 l 37.78,-2.53 c -8.82,-18.88 -18.89,-33.99 -32.75,-46.59 -36.51,-5.03 -96.96,10.08 -181.34,45.34 21.41,-15.11 42.82,-27.7 64.23,-37.78 -26.45,-6.29 -56.67,-6.29 -89.41,0 l -84.37,22.67 c 26.44,-15.11 49.11,-25.19 68,-31.49 -23.93,-13.85 -59.2,-18.88 -103.27,-12.59 l -104.52,20.15 35.26,-15.11 c -103.26,-34 -192.68,-40.3 -266.97,-16.37 33.99,17.63 68,41.56 103.25,71.77 -117.11,-70.51 -195.19,-100.74 -232.97,-91.92 8.82,16.37 7.56,32.74 -3.78,50.37 -11.33,17.63 -31.48,28.96 -60.45,34.01 -39.03,7.54 -80.59,-8.82 -124.67,-46.6 -16.36,23.93 -37.77,35.26 -64.22,35.26 -26.44,1.26 -45.33,-12.59 -54.15,-40.3 -90.67,42.82 -142.31,88.16 -152.38,137.27 z m -18.89,-1.26 c 7.55,-30.23 25.19,-56.67 52.9,-81.86 -10.09,-32.74 -12.6,-59.18 -5.04,-76.82 8.81,-20.14 27.7,-40.29 57.92,-61.7 -40.29,-34 -75.56,-81.86 -104.52,-143.56 -28.96,31.48 -51.64,70.52 -68,120.89 -7.56,20.15 -17.63,65.48 -34.01,134.75 6.3,-79.34 16.38,-137.27 28.97,-175.05 -46.59,59.19 -71.78,123.42 -74.3,192.68 -13.85,-80.6 16.37,-156.16 89.41,-226.68 13.85,-25.18 28.97,-46.59 49.11,-64.23 -11.33,-23.92 -25.18,-60.44 -42.82,-108.3 -31.48,-30.22 -46.58,-65.48 -45.33,-104.52 l 2.52,-26.449 c 2.52,-5.031 6.29,-10.078 13.85,-13.852 11.34,-6.293 26.45,-8.816 44.08,-8.816 l -3.78,-22.668 c -172.52,8.82 -279.57,88.155 -321.13,234.235 l 10.08,-54.15 c -41.56,12.59 -73.04,41.56 -90.67,88.15 -10.07,26.45 -21.41,79.34 -36.52,162.46 -2.53,-31.48 -2.53,-59.19 1.26,-84.38 -26.45,11.33 -42.82,50.38 -50.38,115.86 -5.03,-76.82 12.6,-122.16 52.89,-137.27 12.6,-88.15 56.67,-142.3 129.72,-162.45 17.63,-49.12 49.11,-88.15 91.93,-115.853 50.37,-32.743 119.63,-54.157 209.04,-65.489 -7.56,-47.851 -11.33,-84.379 -13.85,-108.304 -65.48,-49.114 -118.37,-65.477 -156.16,-50.371 20.15,20.152 30.23,36.519 31.49,49.109 -56.67,-65.477 -103.27,-95.703 -137.27,-90.664 -50.37,6.297 -91.93,18.887 -123.41,37.781 -32.74,20.149 -62.97,52.883 -93.19,95.707 23.92,-6.293 47.86,-3.781 68,6.297 l -47.85,5.035 -44.07,15.11 c -75.57,21.41 -139.8,68.007 -192.68,136.012 -49.12,66.74 -79.34,142.3 -90.68,226.68 -11.33,88.15 1.27,170 36.52,245.56 40.3,83.12 104.53,147.34 192.68,191.42 16.37,-17.63 37.78,-27.71 64.22,-28.97 28.97,-1.26 54.16,10.08 75.56,31.49 32.75,-8.82 81.86,-2.52 149.87,21.41 l 10.07,-2.52 c 20.15,-42.82 69.26,-52.89 148.6,-30.22 49.12,-41.57 103.27,-64.23 164.97,-65.49 z m 59.19,-109.56 6.3,17.63 c 26.44,-21.41 60.44,-40.3 103.25,-59.19 l -2.51,-28.96 -50.37,-32.75 c -27.71,20.15 -46.6,39.04 -55.41,57.93 -3.78,8.81 -5.04,18.89 -3.78,31.48 3.78,-5.03 17.63,-11.32 40.3,-20.14 -17.63,13.85 -30.22,25.18 -37.78,34 z m 122.15,-56.67 c 3.78,34 17.64,52.89 41.56,54.15 20.15,2.52 39.04,-6.3 57.93,-26.45 l -20.15,-16.37 c -3.78,-3.78 -8.81,-6.29 -13.85,-5.03 l -15.12,2.51 c 10.08,-12.59 21.41,-13.85 34.01,-6.29 l 79.33,51.63 c 26.45,13.86 49.12,17.63 66.75,12.59 31.48,-8.81 50.37,-22.66 56.67,-40.3 5.04,-16.36 0,-35.26 -18.89,-55.41 8.81,3.78 15.11,7.56 18.89,13.85 40.29,-3.77 81.86,5.04 127.19,26.45 79.33,-30.22 178.82,-23.92 298.46,16.37 35.26,-8.81 69.26,-13.85 104.52,-12.59 35.26,2.52 57.93,8.82 68.01,22.67 l 107.04,5.03 c 27.7,-10.07 54.15,-13.85 81.85,-11.32 -70.52,-51.64 -192.67,-83.12 -366.46,-96.98 -148.6,-11.33 -279.57,-7.55 -392.91,11.34 l -13.85,12.59 c 28.96,-46.59 54.15,-109.56 75.56,-191.41 l 44.08,-202.75 c 5.03,76.82 -21.41,188.89 -78.08,336.23 74.3,-105.78 124.67,-187.64 148.6,-246.82 39.03,-90.68 46.59,-173.79 22.67,-248.094 -3.78,-13.852 -15.12,-23.926 -32.75,-31.477 h -27.7 c -32.74,3.774 -80.6,22.66 -142.31,55.403 l 31.49,-28.957 c -55.41,-6.301 -103.27,-20.153 -143.56,-41.563 -26.45,0 -40.31,12.59 -40.31,37.777 0,8.817 1.27,20.153 5.04,35.27 l 6.3,33.992 c 11.34,128.459 10.07,249.349 -6.3,362.689 -3.77,20.15 -2.51,39.04 1.26,56.67 60.45,-66.75 107.04,-173.79 139.79,-319.87 -6.3,123.42 -51.64,236.76 -134.75,340.02 10.07,31.48 30.23,56.67 59.19,75.56 -23.93,-5.04 -45.34,-21.41 -60.45,-49.12 -17.63,-30.22 -22.67,-66.74 -16.37,-107.04 l 2.52,-25.19 -22.67,-2.51 -15.11,-6.29 -16.38,-1.27 c -32.73,5.04 -59.18,23.93 -78.07,56.67 -21.41,39.04 -28.96,90.67 -22.67,153.64 z m 27.71,-187.65 c -1.26,-17.62 -6.3,-31.47 -13.86,-44.07 12.6,-42.81 11.34,-83.11 -2.51,-123.41 -2.53,-157.419 -30.23,-239.274 -81.85,-245.567 -45.34,0 -79.35,47.851 -104.53,144.82 l -39.04,-5.035 h -27.7 c -15.12,3.773 -22.67,17.632 -20.16,40.292 3.78,40.31 18.9,69.26 44.08,89.42 l 35.26,88.15 c 12.59,34.01 25.18,60.45 36.52,81.86 31.49,56.66 74.3,99.48 130.97,129.71 -1.26,-20.15 0,-39.04 2.51,-56.67 -80.59,-96.97 -132.22,-187.64 -151.11,-272.01 36.52,90.66 88.15,175.04 154.9,251.86 5.03,-25.19 13.85,-46.6 25.18,-64.23 -61.7,-64.23 -100.74,-134.75 -118.37,-214.09 -17.63,-79.327 -6.3,-141.038 34,-182.593 -59.19,110.817 -27.7,239.273 91.93,386.613 z m 96.96,-36.51 11.34,7.56 21.41,1.25 c 11.33,-90.67 11.33,-177.56 2.52,-261.937 l -40.3,71.787 c -12.59,27.71 -21.41,52.89 -25.19,75.56 -1.25,11.33 -1.25,22.66 1.26,35.25 l 26.44,-16.36 -25.18,22.66 c 2.52,8.82 11.33,30.23 27.7,64.23 z m -16.37,-2.52 h 3.78 l -26.44,-52.89 c -16.38,12.6 -35.27,25.19 -55.41,34.01 l -2.52,10.06 c 6.3,7.56 8.82,21.42 8.82,39.05 20.14,-17.63 44.07,-27.71 71.77,-30.23 z m 236.76,498.69 55.41,44.08 c 45.33,-16.37 138.52,-30.23 280.82,-39.04 138.53,-8.82 308.54,-11.34 510.03,-10.08 2.52,-10.07 6.3,-17.63 12.59,-21.4 -8.81,-5.04 -12.59,-12.6 -11.33,-21.41 -327.43,-3.78 -609.51,12.59 -847.52,47.85 z m 266.97,-356.39 c -5.04,-23.92 -16.37,-49.11 -34,-75.56 22.67,16.37 37.78,41.56 46.59,75.56 115.87,0 219.12,12.6 309.8,39.05 99.48,27.7 164.97,66.74 195.19,115.85 45.34,-5.04 90.68,-31.49 134.75,-80.6 -16.37,27.71 -30.22,47.86 -42.82,57.93 -21.4,18.89 -50.37,28.96 -86.89,32.75 l 6.29,10.07 c 25.19,2.52 49.12,8.81 69.27,20.15 16.37,-10.07 36.51,-31.48 60.45,-62.97 -12.6,34.01 -28.97,57.93 -46.6,71.78 7.56,3.78 20.15,22.67 39.04,55.42 20.16,34 28.96,55.41 27.7,62.96 40.31,-66.75 107.05,-148.61 197.72,-248.09 6.3,-12.59 17.63,-21.4 32.74,-25.18 -7.55,-32.75 -6.29,-62.97 2.52,-86.9 27.71,-8.81 45.34,-18.88 50.37,-32.74 v -21.4 c 71.79,-44.08 146.08,-103.27 225.42,-178.83 84.37,-81.86 154.9,-163.712 211.57,-246.825 64.23,-94.453 102,-177.57 113.33,-251.867 12.6,-83.113 -11.33,-148.598 -70.51,-193.934 18.89,109.563 5.03,182.602 -42.82,220.379 20.15,-34.004 31.48,-64.223 35.25,-93.187 6.3,-41.563 0,-89.414 -17.62,-143.559 l -6.3,-3.785 -23.93,-17.629 C 4157.02,261.777 4041.16,217.699 3947.97,231.555 c 20.15,5.039 41.56,13.851 62.97,27.707 -75.56,-35.262 -157.42,-27.707 -245.57,18.886 39.04,-32.742 79.33,-51.628 120.9,-54.148 -46.6,-15.113 -88.16,-23.926 -125.94,-21.406 -34,0 -68,8.808 -100.74,23.926 -27.71,12.593 -60.45,34.003 -99.49,62.964 l -117.12,91.93 c -32.74,-5.035 -59.18,0 -79.33,11.336 -18.89,11.332 -35.27,34 -47.86,65.484 -35.26,8.817 -61.71,20.149 -81.85,34.004 -23.93,16.367 -41.56,41.551 -55.41,73.035 31.48,-1.257 65.49,5.036 103.26,21.411 l -59.19,-10.079 c -21.4,-1.253 -41.55,2.52 -57.93,10.079 -110.82,59.187 -226.68,138.527 -345.05,240.535 20.15,60.445 23.93,125.929 8.82,196.451 129.7,75.55 287.12,127.19 473.51,157.41 -175.06,-6.29 -331.21,-50.37 -468.48,-132.23 71.78,89.42 143.56,154.9 215.35,196.46 94.45,54.15 205.26,80.59 333.72,79.34 h 16.37 c 3.78,0 2.52,-5.04 -3.78,-11.34 -8.82,-10.07 -21.41,-20.15 -37.78,-28.96 l -44.07,-20.15 c 70.52,8.81 107.04,28.96 108.3,61.7 0,7.56 -1.26,11.34 -5.04,13.86 l -17.63,2.52 c -103.27,10.07 -209.05,-10.08 -314.83,-61.71 -112.08,-52.89 -198.97,-128.45 -263.2,-226.67 -31.49,112.07 -96.97,220.38 -195.2,326.16 86.9,-11.33 180.09,-16.38 282.09,-13.86 z m -914.27,876.49 c -12.59,-25.19 -32.73,-50.37 -57.93,-76.81 27.71,17.62 47.86,36.51 59.19,52.89 l 6.3,-56.68 c -12.59,-6.29 -21.41,-17.63 -26.45,-31.47 l -64.22,-5.05 -37.78,2.52 c 22.67,27.71 41.56,61.71 54.15,103.27 -26.45,-46.6 -50.37,-81.86 -74.3,-104.53 l -23.92,-6.29 c -21.41,10.08 -44.08,15.11 -68.01,15.11 36.52,26.44 62.97,61.71 80.6,103.26 16.37,40.3 22.66,81.86 16.37,125.93 11.33,-6.29 56.67,-18.89 134.75,-37.78 -1.26,-26.44 0,-55.4 1.25,-84.37 z m -453.35,190.16 c -12.6,1.26 -25.19,7.55 -35.26,21.4 22.66,5.04 41.56,15.12 56.67,30.23 12.59,-10.07 27.71,-18.89 45.33,-25.19 -41.56,-3.77 -64.22,-12.59 -66.74,-26.44 z m 39.04,-347.57 c 62.96,-2.53 118.37,11.33 167.49,41.55 18.89,0 39.03,-5.03 65.48,-15.11 -41.55,-21.41 -71.77,-62.96 -90.67,-122.15 -21.41,-65.49 -25.18,-124.67 -11.33,-176.31 11.33,-45.33 34,-75.55 64.22,-91.93 -74.3,-26.44 -134.74,-23.93 -183.86,6.3 12.59,-12.59 23.93,-22.67 35.27,-27.71 -13.86,-18.88 -35.27,-27.7 -62.97,-25.18 -27.71,1.26 -45.34,12.59 -52.89,32.74 -7.56,18.89 -7.56,46.59 -3.78,88.16 2.51,35.25 7.56,61.7 13.85,79.32 l -11.34,-17.62 c -10.07,2.52 -21.4,12.59 -32.73,31.48 3.77,-18.89 12.59,-34 27.7,-44.07 l -10.08,-36.52 c -65.48,10.07 -78.08,52.88 -39.03,125.93 13.85,27.7 34,56.67 60.44,88.15 23.93,26.45 44.08,47.85 64.23,62.97 z m 316.09,31.48 c -25.19,-26.45 -50.37,-61.71 -75.56,-105.78 l 44.07,55.41 c 26.45,32.74 42.82,49.11 47.85,47.85 52.9,5.03 94.45,3.78 122.16,-2.52 -108.3,-54.15 -161.19,-159.93 -159.93,-318.61 1.26,-12.59 1.26,-20.15 2.52,-25.18 2.52,-3.78 6.3,-11.34 13.85,-21.41 15.11,-18.89 28.96,-36.52 44.08,-49.12 -42.82,-20.14 -78.09,-20.14 -104.53,0 -27.7,21.41 -39.03,56.67 -34,107.05 -5.03,-31.49 -5.03,-56.68 0,-76.82 -39.04,13.85 -64.22,49.11 -73.04,103.26 -8.81,49.11 -6.3,98.23 10.08,149.86 31.48,95.71 84.37,141.05 162.45,136.01 z m -438.24,334.98 c 2.51,2.51 5.03,1.25 7.55,-2.52 2.52,-3.77 1.26,-7.56 -2.52,-10.08 -16.37,-16.37 -30.22,-26.44 -41.56,-31.47 l -6.3,10.06 z m -57.93,-17.63 c 2.51,-18.9 8.81,-32.74 20.15,-44.08 -15.12,-1.26 -30.23,-6.3 -46.6,-15.11 5.04,26.45 13.86,46.6 26.45,59.19 z m -23.93,-98.23 c -2.52,5.04 -3.78,13.86 -3.78,27.71 20.15,11.33 41.56,18.89 62.96,21.4 13.86,-6.29 23.93,-8.81 32.75,-7.55 3.77,-32.74 -5.04,-55.41 -25.18,-69.26 -20.16,-12.6 -39.05,-10.08 -56.68,6.29 l -3.77,8.82 c 7.55,1.26 15.11,5.03 22.66,13.85 z m 65.48,-39.04 c 11.33,-26.45 8.82,-40.29 -5.03,-41.55 l -64.23,1.26 c -12.6,8.81 -13.86,27.7 -2.51,56.66 23.92,-22.67 46.58,-27.7 71.77,-16.37 z m 115.86,-1678.672 114.61,26.445 c 20.14,-28.968 41.55,-50.371 62.96,-66.746 7.55,-6.293 16.36,-10.074 21.4,-11.332 l 25.19,-1.262 c 204.01,-2.515 357.64,16.379 463.43,54.157 l 85.64,-89.414 c -6.3,-16.371 -23.93,-30.219 -55.41,-42.813 -273.28,-5.043 -545.3,12.594 -813.53,52.887 -15.11,11.332 -15.11,23.926 0,36.515 21.41,17.637 54.15,31.485 95.71,41.563 z m 382.84,115.855 c -44.08,-10.074 -81.86,-17.632 -114.6,-20.144 l 64.22,47.851 c 42.82,-18.886 98.23,-3.773 167.49,41.559 V 764.25 Z m -136.01,-35.257 c 28.96,1.257 70.52,7.554 122.15,20.152 l 133.49,31.477 5.03,-21.411 c -91.92,-30.218 -186.37,-46.589 -284.6,-47.851 21.41,11.332 28.96,17.633 23.93,17.633 z m -118.38,-51.637 c 23.93,3.785 49.12,12.594 76.82,25.187 108.3,0 210.31,16.375 306.02,47.86 7.55,-15.117 21.4,-23.934 40.29,-25.192 l 64.23,3.782 c 13.85,-18.891 32.74,-41.559 57.93,-66.743 -98.23,-40.304 -248.09,-59.191 -449.58,-55.418 l -21.41,1.262 c -5.04,1.258 -11.34,3.785 -18.88,10.078 -17.64,11.332 -36.53,31.485 -55.42,59.184 z m 146.08,-185.117 c -170,12.593 -285.86,34 -348.83,64.222 220.38,-36.515 470.99,-52.89 751.81,-50.375 -94.44,-21.402 -229.19,-26.441 -402.98,-13.847 z m 827.38,376.539 c 28.96,-17.633 66.74,-30.227 110.81,-36.52 2.53,-39.043 5.04,-70.523 11.34,-94.449 15.12,-22.676 25.19,-40.301 28.97,-55.414 -51.64,-8.813 -127.19,8.812 -225.42,54.152 -22.67,-1.261 -54.15,-11.336 -94.45,-30.222 -5.04,45.332 -2.52,84.371 6.3,117.117 41.55,22.664 95.7,37.777 162.45,45.336 z m -337.5,254.379 c 10.08,30.23 13.85,62.96 8.82,96.97 l 49.11,-26.45 c -3.78,-17.63 -5.04,-31.48 -3.78,-44.07 3.78,-30.23 18.89,-68 44.08,-109.56 -26.45,30.22 -54.16,52.89 -83.12,69.26 l 112.08,-115.857 5.04,-10.075 -6.3,-42.82 c -28.97,6.293 -55.41,6.293 -81.86,2.52 -26.44,-6.293 -47.85,-3.774 -64.22,3.773 10.08,31.484 16.37,89.419 20.15,176.309 z m -226.68,-117.114 18.89,2.52 c 12.59,-46.598 27.7,-81.856 46.6,-105.785 -13.86,-11.336 -17.63,-35.258 -13.86,-66.746 3.78,27.707 11.33,46.597 25.19,54.152 10.08,-7.555 21.41,-15.113 32.74,-18.891 l 20.15,-6.3 c 6.3,0 12.59,2.527 20.15,6.3 16.37,8.817 28.96,21.411 40.3,39.036 6.29,-17.625 8.81,-36.516 5.04,-55.403 l -1.26,-1.265 c -7.56,-12.594 -18.89,-22.661 -32.74,-26.446 l -44.08,-6.293 v -1.257 c -60.45,0 -78.08,-23.934 -51.63,-71.786 -55.42,-18.886 -85.64,1.266 -89.42,60.446 0,21.41 1.26,52.894 7.56,93.195 z m 70.52,-211.566 c 7.56,10.07 23.93,13.848 49.11,12.598 1.27,-15.118 -2.51,-25.192 -8.81,-32.746 l -34,-22.672 c -11.33,18.886 -13.86,32.742 -6.3,42.82 z m 137.27,66.742 c 1.26,25.184 -2.52,46.598 -10.08,65.488 l 3.78,7.547 c 8.81,-5.031 27.71,-10.066 56.67,-11.332 -11.34,-28.961 -28.96,-49.109 -50.37,-61.703 z m 1225.32,860.118 c -7.56,2.52 -13.85,6.29 -18.89,12.59 -7.56,8.82 -10.08,15.11 -8.82,21.41 2.52,10.07 10.08,15.12 22.67,12.6 13.85,-10.08 30.22,-27.71 46.6,-52.9 -11.34,-1.26 -25.19,0 -41.56,6.3 z m -18.89,-71.78 c -3.78,2.51 -6.3,20.15 -7.56,50.37 0,8.81 2.52,13.85 7.56,16.37 15.11,-7.56 31.48,-12.59 47.85,-12.59 -25.19,-39.04 -40.29,-57.93 -47.85,-54.15 z m 428.17,-36.52 c -30.23,7.55 -62.97,-3.78 -99.49,-30.23 -36.52,-28.96 -56.67,-59.19 -56.67,-90.67 -86.89,100.75 -144.82,176.31 -176.3,226.68 l 115.86,18.89 c 69.26,7.56 110.82,8.81 125.93,2.52 z m -40.3,-16.37 c 25.18,7.55 46.59,5.03 60.45,-7.56 12.59,-11.34 16.37,-26.44 11.33,-42.82 -5.03,-16.37 -16.37,-31.48 -34,-46.59 -16.37,-13.85 -35.26,-25.19 -54.15,-34.01 -21.41,-7.55 -37.78,-10.07 -51.63,-5.03 -23.93,6.3 -34.01,20.15 -31.49,40.29 2.53,17.64 13.86,36.53 34.01,55.42 21.4,20.15 42.81,32.74 65.48,40.3 z m -123.41,236.75 1.26,-17.63 c -17.64,2.52 -50.38,-6.3 -98.23,-25.19 -39.05,-16.37 -64.23,-28.96 -76.82,-39.04 61.71,61.71 119.63,89.41 173.79,81.86 z m -229.2,-45.34 h 12.59 c 7.56,-5.03 13.86,-18.89 18.89,-39.04 6.3,-20.15 6.3,-30.22 0,-30.22 -7.56,18.89 -21.41,37.78 -40.29,57.93 0,5.04 2.51,8.81 8.81,11.33 z m 45.33,-35.26 c 3.78,20.15 15.12,41.56 35.26,62.97 17.64,21.41 39.04,37.78 62.97,51.63 25.19,13.85 45.34,18.89 61.71,16.38 17.63,-2.53 26.44,-15.12 25.19,-37.79 -73.05,7.56 -134.75,-22.67 -185.13,-93.19 z m 15.12,-20.14 c -11.34,-1.27 -3.79,5.03 21.41,17.62 27.7,13.86 56.66,26.45 88.14,36.52 93.2,28.97 137.27,18.89 130.97,-31.48 -60.44,7.56 -141.04,0 -240.52,-22.66 z m 347.57,-1530.083 -22.67,25.188 c -5.04,6.297 -8.81,13.847 -8.81,21.406 129.71,-17.629 263.2,32.746 399.2,148.602 l 10.07,-7.559 -2.51,-20.145 17.63,-22.668 c 1.26,-3.781 0,-13.851 -2.53,-28.968 -73.03,-41.551 -143.56,-73.035 -210.3,-90.668 -55.4,-15.114 -115.86,-23.93 -180.08,-25.188 z m -17.63,-27.703 11.33,16.367 c 130.98,-2.515 266.98,37.778 406.76,118.383 27.71,-22.676 65.49,-49.121 112.08,-76.82 l -190.15,-6.301 c -13.86,-2.52 -27.71,-5.031 -41.56,-10.078 -40.3,-15.106 -73.04,-31.477 -98.23,-47.852 L 4114.2,124.512 4089.02,122 c -62.97,-1.262 -113.34,6.293 -154.9,22.664 z m -25.19,-68.0038 c -2.52,15.1093 5.03,33.9998 18.89,59.1838 42.82,-17.629 94.45,-26.438 157.41,-27.699 l 31.49,2.515 26.44,16.371 c 28.97,18.891 57.93,35.262 89.42,46.594 l 46.59,10.078 204.01,7.559 114.61,-64.231 c 42.81,-23.926 73.03,-41.5583 91.92,-54.156 7.56,-5.0312 5.04,-11.3281 -6.3,-16.3672 -294.67,-20.1484 -541.5,-8.8164 -740.48,32.7461 -13.85,2.5156 -25.18,-1.2617 -34,-12.5937 z m 3.78,-13.8516 c 8.81,11.332 18.89,16.3672 28.97,13.8516 C 4141.91,36.3594 4383.7,25.0234 4668.3,46.4375 4654.45,33.8438 4605.34,26.2891 4519.7,21.25 4444.14,17.4727 4354.73,17.4727 4251.47,19.9922 l -248.09,16.3672 c -71.78,7.5586 -102.01,16.375 -90.67,26.4492 z m -884.04,3992.0514 27.7,26.44 36.52,1.26 c 185.12,60.45 347.58,108.3 487.36,141.05 177.56,40.29 343.79,65.48 499.95,73.03 -44.08,-45.33 -102,-102 -175.04,-167.49 l -178.83,-161.19 c -64.22,-59.19 -110.82,-107.04 -142.3,-143.56 -37.78,-47.86 -59.19,-85.63 -61.71,-114.6 l 401.72,127.19 c 152.39,44.08 288.39,78.08 408.03,99.49 -54.16,-83.12 -180.09,-196.46 -376.54,-338.75 l -387.88,-269.51 c 120.9,7.56 265.72,35.27 431.96,79.34 l -5.04,-8.81 c -76.82,-78.07 -190.16,-166.23 -340.02,-265.72 l -180.09,-117.12 c -69.26,-44.07 -122.14,-80.59 -159.92,-107.03 l 188.89,6.29 c -32.74,-27.71 -85.63,-61.71 -161.19,-103.27 -81.86,-46.59 -139.79,-81.86 -172.53,-105.78 26.44,41.56 44.08,102.01 49.11,183.86 -10.07,80.6 -30.21,134.75 -60.44,161.19 -25.19,23.93 -55.42,26.45 -90.67,10.08 -30.23,-15.11 -60.45,-40.3 -90.68,-78.08 -26.44,-35.26 -45.33,-69.26 -56.67,-103.26 l -22.66,-3.78 22.66,51.64 c 10.09,28.95 13.86,66.73 10.09,114.59 l -105.8,-64.22 40.31,124.67 c 20.15,83.11 27.7,162.45 20.15,236.75 l -134.75,-113.34 c -41.56,-34 -71.78,-51.63 -91.93,-55.42 47.85,186.39 39.03,327.43 -26.45,421.88 -85.63,-147.34 -154.89,-256.9 -209.05,-329.93 -69.26,-94.46 -128.44,-147.35 -175.04,-161.21 50.37,167.5 84.38,292.17 99.49,376.55 22.66,119.64 20.14,197.71 -8.82,234.23 -52.89,-59.19 -99.49,-123.41 -137.27,-190.16 -35.26,-64.23 -60.45,-136.01 -75.56,-215.34 -11.33,-62.97 -17.63,-138.53 -18.89,-225.42 -74.3,46.6 -124.67,117.12 -152.37,211.56 -23.93,85.63 -34.01,206.53 -27.71,362.68 -80.59,-84.37 -137.26,-195.19 -168.75,-334.96 -13.85,-61.72 -20.15,-120.9 -18.89,-176.31 1.27,-57.93 8.81,-104.53 26.45,-143.57 -50.37,31.48 -95.71,93.2 -138.52,185.12 -36.53,74.3 -73.05,178.83 -112.09,313.57 -99.49,-163.71 -76.82,-358.9 66.75,-583.06 l -28.97,5.03 c -25.19,36.52 -55.41,41.56 -89.4,13.86 -39.05,5.04 -65.49,-5.03 -76.82,-31.49 -11.34,-23.92 -12.6,-60.45 -3.79,-110.82 -148.59,89.41 -278.3,177.57 -390.386,264.46 l 318.606,-88.15 c -105.78,69.26 -263.19,163.71 -469.723,283.35 -215.348,125.92 -372.758,219.12 -470.989,282.09 h 1.262 c 90.672,-3.78 200.23,-13.85 326.168,-35.27 l 323.642,-56.67 c -265.72,222.9 -591.88,440.77 -975.9741,656.11 137.2661,42.82 284.6051,57.93 444.5391,47.85 122.156,-7.55 269.496,-33.99 442.023,-76.82 -66.746,100.75 -162.449,177.57 -287.128,231.72 -114.594,49.12 -258.157,80.6 -430.684,94.45 158.676,69.26 323.644,100.75 497.434,95.71 128.445,-3.78 312.3,-32.74 554.09,-88.15 -6.29,65.48 -55.4,152.37 -148.59,259.41 l -117.122,127.19 c -46.585,49.12 -78.074,86.9 -96.964,110.83 177.556,-40.3 348.826,-114.6 513.806,-224.16 129.71,-86.9 272.01,-206.53 424.39,-358.91 214.08,100.74 423.13,130.97 627.14,90.68 214.09,-42.82 401.72,-161.2 560.4,-353.87 z m 74.29,-994.87 c 27.72,0 50.38,-13.85 68.01,-45.33 17.64,-31.49 28.97,-75.57 34,-133.5 -2.52,-65.48 -21.41,-128.45 -55.41,-191.41 l -12.59,-10.08 c -23.93,-36.51 -46.6,-64.22 -65.49,-81.85 -31.48,-28.97 -68,-45.34 -110.82,-47.86 -10.07,-1.25 -21.41,7.56 -32.74,23.93 l -32.74,42.82 10.07,91.93 -34,-129.71 -10.07,-27.7 -26.45,-16.38 c -182.6,-103.26 -326.16,-176.3 -428.17,-219.12 -20.15,-7.55 -35.26,-12.59 -46.6,-15.11 l -47.85,-1.26 c -35.26,-2.52 -119.63,7.56 -251.86,31.48 -138.53,23.93 -206.53,42.82 -207.79,56.68 v -6.31 l 1.26,-3.77 c 1.26,-98.23 -25.18,-171.27 -79.34,-220.39 -50.37,-46.59 -119.63,-66.74 -209.05,-60.44 -39.03,25.19 -65.47,46.6 -78.07,62.96 -20.15,25.19 -30.22,56.68 -30.22,96.98 5.03,15.11 2.51,31.48 -5.05,47.85 16.38,13.85 25.19,39.04 25.19,75.56 18.89,7.56 34.01,21.41 46.6,42.81 l 16.37,-6.29 c 7.56,-17.63 42.82,-40.3 104.52,-68.01 -21.41,-20.15 -35.26,-51.63 -42.81,-90.67 -7.56,-42.82 -2.52,-74.3 13.85,-95.71 -20.15,79.34 -6.3,141.05 44.07,181.35 21.41,-2.52 36.53,-2.52 49.12,0 -59.19,12.59 -105.79,31.48 -139.78,56.67 -17.64,12.59 -22.67,23.93 -16.38,32.74 6.3,10.08 31.48,16.37 70.52,20.14 35.27,-11.33 71.79,-11.33 110.83,-2.51 l 26.44,-35.27 c -59.19,105.79 -144.82,269.51 -258.16,489.89 l -8.82,18.88 c -2.51,3.79 -6.29,6.31 -12.59,7.56 21.41,20.15 44.08,12.59 65.49,-22.66 l 50.37,2.51 c -75.57,123.41 -117.12,234.23 -125.94,329.94 -7.54,78.08 6.3,154.9 40.31,231.72 15.11,-56.67 31.48,-109.56 47.85,-158.67 -26.44,-26.45 -47.85,-66.75 -62.97,-122.16 16.38,-49.11 44.08,-76.82 84.38,-83.12 3.77,35.27 13.85,60.45 31.48,75.56 50.37,-107.04 107.05,-175.04 168.75,-202.75 -17.63,61.72 -26.45,123.42 -26.45,185.12 32.74,-18.89 61.71,-45.33 86.9,-78.08 50.37,-64.22 96.97,-113.33 143.56,-144.82 36.52,-26.44 78.08,-45.33 124.67,-57.92 6.3,-13.85 13.86,-25.19 23.93,-34.01 -10.07,25.19 -18.89,55.41 -26.45,91.93 -3.77,-17.63 -3.77,-32.74 0,-46.59 -47.85,39.04 -83.11,70.52 -104.52,93.19 -40.3,40.3 -75.56,84.37 -104.52,132.23 l -64.23,80.59 c -25.19,28.97 -49.11,54.16 -71.78,71.79 17.63,117.11 69.26,236.75 153.64,356.38 -12.59,-157.41 0,-283.34 39.04,-380.31 34,-79.34 86.89,-143.57 162.45,-192.68 10.07,216.61 45.34,371.5 107.04,464.69 l 56.67,88.15 c 20.15,30.23 39.04,51.63 55.41,64.23 34,-26.45 -1.26,-221.64 -108.3,-589.36 108.3,13.85 244.31,176.31 405.5,488.61 25.19,-47.85 37.78,-110.82 37.78,-188.9 -44.07,-6.29 -84.38,-27.7 -122.16,-66.74 -41.55,-42.81 -80.59,-96.97 -117.11,-161.2 -20.15,-33.99 -50.37,-94.44 -91.93,-181.33 -13.85,-31.49 -36.52,-56.67 -65.48,-75.57 -11.34,8.82 -20.16,26.46 -26.45,50.38 v -69.27 c -5.04,-7.55 -10.07,-11.33 -13.86,-12.59 -26.44,31.48 -36.51,80.6 -30.22,144.83 -11.33,-40.3 -15.11,-78.08 -10.07,-109.56 6.3,-35.27 18.89,-49.12 41.55,-44.08 l 46.6,36.52 c 23.93,16.37 45.33,41.55 62.97,74.3 11.33,7.55 31.48,25.18 59.18,55.41 l 91.94,104.52 52.88,68.01 c 22.68,27.7 44.08,46.59 64.23,55.41 17.63,8.81 34,15.11 50.37,17.62 -6.29,-40.29 -12.59,-80.59 -21.41,-122.15 34,10.08 74.31,31.49 118.38,65.48 l 8.81,-18.88 3.79,-16.38 2.51,-6.29 22.67,5.04 c 31.49,11.33 55.42,25.18 71.78,40.3 -10.07,-83.12 -31.48,-171.27 -64.22,-263.21 30.22,10.08 68,32.75 113.33,66.75 3.79,-44.08 -8.81,-95.7 -39.03,-153.64 11.33,-7.55 22.66,-8.81 34,-2.51 v -25.19 c 68,143.57 130.97,215.34 188.89,217.86 z m 1472.15,-445.8 c -6.29,-12.59 -10.07,-23.92 -11.33,-35.26 6.29,6.3 12.59,16.37 20.15,28.96 l 18.89,28.97 c 52.89,68 112.08,122.16 177.56,161.19 85.64,100.75 176.31,157.42 274.53,168.75 66.75,15.11 118.38,23.93 154.91,27.7 65.47,5.05 117.11,-1.25 154.89,-18.88 40.3,-11.33 70.52,-22.67 88.15,-34 26.45,-17.64 42.82,-42.82 50.37,-74.3 40.31,-12.6 64.23,-25.19 75.56,-36.53 16.37,-18.89 12.6,-44.08 -10.07,-75.56 6.3,-31.48 7.55,-51.62 5.03,-60.44 -5.03,-18.89 -20.14,-31.49 -46.59,-39.04 -18.89,-15.11 -40.29,-22.67 -64.23,-22.67 -45.33,11.33 -81.86,16.37 -107.04,15.11 l -27.7,1.26 -46.6,12.59 c -51.63,-18.88 -102,-18.88 -152.38,-2.51 l -55.41,-1.26 c -20.15,-5.04 -37.77,-10.08 -52.89,-17.63 l 86.9,5.04 c -13.85,-12.6 -31.49,-23.93 -52.9,-31.49 l -60.44,-16.37 c -51.64,-12.59 -84.38,-28.97 -99.49,-50.38 l -142.3,-73.03 56.67,-5.04 c -134.75,-139.78 -285.87,-324.91 -453.36,-552.84 -6.29,-8.82 -11.33,-13.85 -16.37,-16.37 -5.03,-2.52 -13.85,-3.78 -23.92,-5.04 13.84,-6.3 34,-5.04 57.92,3.77 -3.78,-21.4 -28.96,-56.66 -75.56,-105.78 l -95.7,-90.66 -79.34,-90.68 c -46.59,-35.25 -93.2,-54.15 -141.05,-56.67 l -25.18,26.45 -73.04,99.49 c 16.37,22.66 39.03,45.33 68,69.26 l 79.34,60.44 c 2.52,21.41 7.55,36.53 15.11,45.34 6.29,7.55 21.41,16.37 44.07,26.44 8.82,35.27 21.42,64.23 37.78,88.16 15.11,23.93 37.78,46.6 66.75,70.52 3.77,28.96 10.08,50.37 18.89,62.97 10.07,13.85 27.7,26.45 52.89,36.51 2.52,26.45 10.08,50.38 22.67,70.53 10.07,16.37 26.45,35.25 47.85,57.93 18.89,54.15 52.9,109.56 103.27,162.45 -1.26,-11.33 -3.78,-22.67 -10.08,-32.74 7.56,5.03 12.59,13.85 16.37,26.44 l 10.07,30.23 c 26.45,71.78 65.49,124.67 118.38,158.67" /></g></g></svg>